<svg width="34" height="28" viewBox="0 0 34 28" fill="none" xmlns="http://www.w3.org/2000/svg">
<path d="M30.5601 0.285034H3.06006C2.39702 0.285034 1.76113 0.548426 1.29229 1.01727C0.823451 1.48611 0.560059 2.12199 0.560059 2.78503V25.285C0.560059 25.9481 0.823451 26.584 1.29229 27.0528C1.76113 27.5216 2.39702 27.785 3.06006 27.785H5.15225C5.38882 27.7851 5.62056 27.7181 5.82053 27.5917C6.0205 27.4653 6.1805 27.2847 6.28193 27.071C6.88978 25.7877 7.84945 24.7033 9.04935 23.9439C10.2492 23.1845 11.6401 22.7814 13.0601 22.7814C14.4801 22.7814 15.8709 23.1845 17.0708 23.9439C18.2707 24.7033 19.2303 25.7877 19.8382 27.071C19.9396 27.2847 20.0996 27.4653 20.2996 27.5917C20.4996 27.7181 20.7313 27.7851 20.9679 27.785H30.5601C31.2231 27.785 31.859 27.5216 32.3278 27.0528C32.7967 26.584 33.0601 25.9481 33.0601 25.285V2.78503C33.0601 2.12199 32.7967 1.48611 32.3278 1.01727C31.859 0.548426 31.2231 0.285034 30.5601 0.285034ZM9.31006 16.535C9.31006 15.7934 9.52999 15.0683 9.94205 14.4516C10.3541 13.835 10.9398 13.3543 11.625 13.0705C12.3102 12.7867 13.0642 12.7124 13.7916 12.8571C14.5191 13.0018 15.1873 13.3589 15.7117 13.8834C16.2362 14.4078 16.5933 15.076 16.738 15.8034C16.8827 16.5309 16.8084 17.2849 16.5246 17.9701C16.2408 18.6553 15.7601 19.241 15.1434 19.653C14.5268 20.0651 13.8017 20.285 13.0601 20.285C12.0655 20.285 11.1117 19.8899 10.4084 19.1867C9.70515 18.4834 9.31006 17.5296 9.31006 16.535ZM30.5601 25.285H21.721C20.6771 23.4904 19.1036 22.0627 17.2163 21.1975C18.1625 20.355 18.8304 19.2448 19.1313 18.0141C19.4321 16.7833 19.3519 15.4902 18.9011 14.3061C18.4504 13.1221 17.6504 12.103 16.6072 11.3839C15.5641 10.6648 14.327 10.2798 13.0601 10.2798C11.7931 10.2798 10.556 10.6648 9.51288 11.3839C8.46973 12.103 7.66976 13.1221 7.21899 14.3061C6.76823 15.4902 6.68798 16.7833 6.98887 18.0141C7.28976 19.2448 7.95758 20.355 8.90381 21.1975C7.01653 22.0627 5.44305 23.4904 4.39912 25.285H3.06006V2.78503H30.5601V25.285ZM5.56006 9.03503V6.53503C5.56006 6.20351 5.69175 5.88557 5.92618 5.65115C6.1606 5.41673 6.47854 5.28503 6.81006 5.28503H26.8101C27.1416 5.28503 27.4595 5.41673 27.6939 5.65115C27.9284 5.88557 28.0601 6.20351 28.0601 6.53503V21.535C28.0601 21.8666 27.9284 22.1845 27.6939 22.4189C27.4595 22.6533 27.1416 22.785 26.8101 22.785H24.3101C23.9785 22.785 23.6606 22.6533 23.4262 22.4189C23.1918 22.1845 23.0601 21.8666 23.0601 21.535C23.0601 21.2035 23.1918 20.8856 23.4262 20.6511C23.6606 20.4167 23.9785 20.285 24.3101 20.285H25.5601V7.78503H8.06006V9.03503C8.06006 9.36656 7.92836 9.6845 7.69394 9.91892C7.45952 10.1533 7.14158 10.285 6.81006 10.285C6.47854 10.285 6.1606 10.1533 5.92618 9.91892C5.69175 9.6845 5.56006 9.36656 5.56006 9.03503Z" fill="#614D3B"/>
</svg>
