<svg width="1920" height="255" viewBox="0 0 1920 255" fill="none" xmlns="http://www.w3.org/2000/svg">
<path d="M0 148.13V254.616L1920 254.616V142.605C1877.16 134.233 1705.94 78.785 1530.9 95.8632C1378.07 110.773 909.737 212.423 681.677 212.423C526.637 212.423 294.111 163.898 208.054 148.13C90.0234 126.503 41.5108 139.423 0 148.13Z" fill="#D5B082"/>
<path d="M261.296 1.25782C243.445 1.81567 225.594 1.88539 207.742 1.53674C199.097 1.32755 190.452 0.90916 181.806 0.83943C177.323 0.769699 172.92 0.560515 168.438 0.630246C164.995 0.699977 160.352 0.490767 156.99 1.74592C156.03 1.74592 154.989 2.09458 154.108 2.79188C151.387 5.093 149.385 6.90602 149.546 10.3926C149.626 13.391 150.746 16.5289 152.027 19.3181C154.269 24.1295 157.551 28.3134 161.633 32.1486C170.039 39.9584 181.646 45.258 193.734 46.9315C207.422 48.8142 220.631 46.8618 233.199 41.9806C244.486 37.5876 259.375 31.0329 265.219 20.7127C268.341 15.2737 273.464 0.909165 261.296 1.25782Z" fill="#ECD8CB"/>
<path d="M258.735 52.2312C240.883 52.7891 223.032 52.8588 205.181 52.5101C196.535 52.301 187.89 51.8826 179.244 51.8128C174.762 51.7431 170.359 51.5339 165.876 51.6036C162.434 51.6734 157.791 51.4642 154.429 52.7193C153.468 52.7193 152.427 53.068 151.547 53.7653C148.825 56.0664 146.824 57.8794 146.984 61.3659C147.064 64.3644 148.185 67.5022 149.465 70.2915C151.707 75.1029 154.989 79.2868 159.072 83.122C167.477 90.9318 179.084 96.2314 191.172 97.9049C204.861 99.7876 218.069 97.8351 230.637 92.954C241.924 88.561 256.814 82.0063 262.657 71.6861C265.779 66.1774 270.903 51.8826 258.735 52.2312Z" fill="#FBC788"/>
<path d="M256.253 103.135C238.402 103.693 220.551 103.762 202.699 103.414C194.054 103.204 185.408 102.786 176.763 102.716C172.28 102.647 167.877 102.437 163.394 102.507C159.952 102.577 155.309 102.368 151.947 103.623C150.986 103.623 149.946 103.972 149.065 104.669C146.344 106.97 144.342 108.783 144.502 112.27C144.582 115.268 145.703 118.406 146.984 121.195C149.225 126.006 152.507 130.19 156.59 134.026C164.995 141.835 176.603 147.135 188.69 148.808C202.379 150.691 215.587 148.739 228.155 143.858C239.443 139.465 254.332 132.91 260.176 122.59C263.298 117.151 268.421 102.786 256.253 103.135Z" fill="#F2B330"/>
<path fill-rule="evenodd" clip-rule="evenodd" d="M310.722 132.094C315.32 127.498 322.797 126.538 327.133 130.871C331.47 135.204 330.51 142.683 325.912 147.279C322.832 150.359 317.853 152.468 313.605 152.316C313.233 152.302 312.862 152.27 312.493 152.221L303.433 161.281C302.54 162.154 301.339 162.64 300.09 162.632C298.841 162.625 297.645 162.126 296.762 161.243C295.879 160.359 295.379 159.164 295.372 157.915C295.365 156.666 295.85 155.464 296.723 154.571L305.782 145.513C305.732 145.145 305.701 144.775 305.687 144.404C305.535 140.154 307.642 135.174 310.722 132.094ZM312.49 133.861C315.223 131.128 318.9 130.118 321.92 130.794C321.467 131.011 321.025 131.248 320.593 131.504C318.413 132.798 316.152 134.718 314.627 136.241C313.107 137.763 310.865 140.346 309.247 142.834C308.867 143.419 308.508 144.018 308.2 144.606L308.185 144.314C308.06 140.818 309.857 136.496 312.49 133.861ZM324.387 132.556C325.068 132.416 325.287 132.566 325.363 132.639C325.44 132.716 325.588 132.938 325.448 133.618C325.312 134.291 324.932 135.154 324.35 136.134C323.195 138.084 321.423 140.183 319.997 141.609C318.567 143.038 316.118 145.159 313.808 146.663C312.643 147.419 311.588 147.969 310.758 148.223C310.345 148.349 310.053 148.381 309.87 148.368C309.816 148.366 309.764 148.355 309.713 148.336L309.685 148.319L309.668 148.289C309.65 148.24 309.639 148.187 309.637 148.134C309.623 147.951 309.653 147.659 309.78 147.246C310.035 146.416 310.585 145.361 311.343 144.196C312.845 141.888 314.967 139.438 316.395 138.009C317.823 136.583 319.922 134.809 321.87 133.654C322.852 133.071 323.715 132.694 324.387 132.556ZM315.17 148.758C314.587 149.138 313.988 149.496 313.4 149.804L313.692 149.819C317.188 149.944 321.508 148.148 324.142 145.514C326.877 142.779 327.888 139.104 327.21 136.084C326.993 136.537 326.757 136.98 326.5 137.411C325.207 139.591 323.288 141.853 321.763 143.378C320.242 144.899 317.658 147.139 315.17 148.758Z" fill="#614D3B"/>
</svg>
