<svg width="348" height="110" viewBox="0 0 348 110" fill="none" xmlns="http://www.w3.org/2000/svg">
<path d="M18.6044 104.352C18.0458 103.915 17.7355 103.728 17.6113 103.728C17.4251 103.728 17.301 103.791 17.2389 103.853C16.9907 104.103 16.8045 104.227 16.6183 104.227C16.5562 104.227 16.4941 104.103 16.4941 103.853C16.4941 103.541 16.3079 103.479 15.9976 103.728C15.5631 103.915 15.3769 103.853 15.3769 103.603C15.3769 103.416 15.2528 103.479 15.0045 103.728C14.7563 103.978 14.3218 104.165 13.7011 104.352H13.4529C13.1425 104.352 12.5839 104.04 11.9012 103.354C11.3426 102.73 10.8461 102.231 10.4737 102.044C10.0392 101.856 9.7289 101.482 9.3565 100.796C9.04617 100.172 8.7979 99.3607 8.6117 98.4872C8.4255 97.6761 8.2393 96.4283 8.0531 94.806C7.8669 93.1838 7.68071 91.312 7.55658 89.1283C7.43244 87.007 7.30831 84.636 7.18418 82.1403C7.06005 79.6446 6.99798 77.1489 6.99798 74.7156C6.93591 68.0396 6.81178 62.3618 6.62558 57.6824C6.43938 53.0029 6.31525 48.8226 6.12905 45.3286C5.94285 41.7723 5.75665 38.715 5.50838 36.0945C5.26012 33.474 4.94979 30.8535 4.51532 28.3578C4.32913 26.9852 4.20499 25.7997 4.01879 24.8638C3.83259 23.928 3.6464 22.9297 3.4602 21.9314C3.274 20.9331 3.02573 19.81 2.7154 18.4998C2.40507 17.2519 2.09474 15.6297 1.66027 13.6956C1.16374 11.7614 0.791343 10.2016 0.543078 9.0785C0.294812 7.95543 0.108616 7.08194 0.0465498 6.45801C-0.0155166 5.83408 -0.0155166 5.39733 0.0465498 5.14776C0.108616 4.8358 0.232745 4.58623 0.294811 4.21187C0.853408 3.1512 1.53614 2.65205 2.21887 2.65205C2.5292 2.65205 2.7154 2.83923 2.83953 3.27598C2.9016 3.46316 3.02573 3.71273 3.21193 4.02469C3.39813 4.33666 3.52226 4.52383 3.70846 4.52383C3.89466 4.52383 4.01879 4.33666 4.20499 3.89991C4.45326 3.40077 4.76359 3.1512 5.19805 3.1512C5.44632 3.1512 5.69459 3.27598 5.94285 3.52555C6.19112 3.77512 6.62558 3.83752 6.99798 3.83752C7.61864 3.83752 8.67377 4.46144 10.0392 5.6469C11.4047 6.89476 12.5219 8.14261 13.4529 9.45286C14.2597 10.5759 14.8804 11.6366 15.3769 12.6973C15.8735 13.6956 16.4321 15.1306 17.0527 17.0024C17.2389 17.7511 17.4251 18.375 17.6734 18.9365C17.9217 19.4981 18.1078 19.81 18.294 19.9348C18.5423 20.122 18.6665 20.3716 18.6665 20.8083C18.6044 21.1203 18.6044 21.3075 18.7906 21.3075C18.8526 21.2451 18.9147 21.1827 18.9768 21.2451C19.0388 21.3075 18.9768 21.3699 18.9147 21.557C18.7285 21.8066 18.8526 22.2434 19.163 22.8673C19.4112 23.304 19.7216 24.1151 20.094 25.363C20.4664 26.6108 20.7767 28.0459 21.1491 29.6681C21.4594 31.2903 21.7698 32.9749 22.018 34.6595C22.2663 36.3441 22.3904 37.8415 22.5146 39.1518C22.7008 40.2748 22.7008 40.8364 22.5146 40.8364C22.5146 40.774 22.4525 40.6492 22.3904 40.5868C22.3284 40.3372 22.2663 40.0253 22.2042 39.6509C22.1422 39.2766 22.0801 38.9646 22.018 38.715C21.8318 37.8415 21.7077 36.8432 21.5215 35.7826C21.3353 34.7219 21.2732 33.7236 21.2732 32.8501C21.025 31.2903 20.7767 29.9177 20.5284 28.7946C20.2802 27.6091 20.094 27.1724 20.0319 27.4219C19.8457 27.8587 19.8457 28.1083 20.0319 28.2954C20.2181 28.4826 20.2802 28.9194 20.2802 29.7305C20.2802 30.0424 20.3422 30.604 20.4043 31.3527C20.4664 32.1014 20.5905 32.9125 20.7767 33.7236C21.087 35.5954 21.3974 38.715 21.7077 43.0825C22.018 47.45 22.2042 52.0671 22.3904 56.8713L22.5146 64.3584V45.9526L22.6387 45.2039L22.887 45.9526C22.949 46.2021 23.0732 47.138 23.1352 48.6978C23.1973 50.2577 23.2594 52.1918 23.2594 54.3756C23.2594 56.5593 23.2594 58.9302 23.2594 61.3636C23.2594 63.8593 23.1973 66.043 23.1352 67.9772C23.0732 68.9755 23.0111 69.9114 23.0111 70.7849C23.0111 71.6584 22.949 72.4695 22.887 73.0934C22.887 73.9045 22.887 74.6532 22.887 75.2771C22.949 75.3395 23.3214 74.5908 24.0042 72.9062C24.6248 71.2216 25.4317 69.2874 26.3006 67.0413C27.1695 64.7952 28.1005 62.4866 28.9695 60.1781C29.8384 57.8072 30.5211 55.9354 31.0176 54.5628C32.3831 50.7568 33.4382 47.8244 34.121 45.7654C34.8037 43.7064 35.3623 42.2714 35.6726 41.3355C36.045 40.3996 36.2933 39.8381 36.5416 39.6509C36.7278 39.4637 36.976 39.2142 37.3484 38.9646C37.9691 38.4655 38.4035 38.2159 38.5897 38.2159C38.9001 38.2159 39.2104 38.9646 39.4587 40.3996L39.5828 41.7099L40.0793 40.7116C40.5759 39.9005 40.8862 39.4013 41.0724 39.2766C41.3207 39.027 41.5689 38.9022 41.8172 38.9022C42.3758 38.9022 42.7482 39.2142 42.9344 39.7757C42.9964 40.0877 43.2447 40.2124 43.555 40.1501C44.0516 39.9629 44.3619 39.9005 44.5481 39.9005C44.7964 39.9005 45.1067 40.0877 45.5412 40.5244C46.0377 41.0236 46.5342 41.3979 46.9687 41.7723C47.217 41.9594 47.4032 42.1466 47.6514 42.3338C47.8376 42.521 48.0238 42.8953 48.148 43.5193C48.2721 44.0808 48.3962 44.8919 48.4583 45.8902C48.5204 46.8885 48.6445 48.3235 48.8307 50.0705C48.8928 50.8816 49.0169 52.5662 49.0789 55.0619C49.141 57.5576 49.2651 60.1781 49.3272 62.861C49.5134 68.2268 49.6996 72.9062 49.8858 76.8993C50.072 80.8925 50.2582 83.4506 50.4444 84.6984C50.5065 84.8856 50.5685 85.0728 50.5685 85.3223C50.5685 85.5095 50.5685 85.6343 50.5685 85.6967C50.6306 85.6967 50.6306 85.1352 50.5065 83.9497C50.3823 82.7642 50.2582 80.6429 50.072 77.5233C50.0099 75.7139 49.8858 73.5925 49.8237 71.0344C49.7617 68.4763 49.6996 66.043 49.6375 63.7345C49.5755 61.426 49.5755 59.4294 49.6375 57.8072C49.6996 56.185 49.7617 55.4363 49.8237 55.4987C49.8858 55.561 50.0099 56.6217 50.072 58.5559C50.1341 60.4901 50.2582 63.1106 50.4444 66.355C50.5065 69.3498 50.6306 72.1575 50.6927 74.778C50.7547 77.3985 50.8789 79.6446 51.003 81.5788C51.1271 83.513 51.2513 85.0728 51.3754 86.1334C51.4995 87.1941 51.6237 87.7557 51.6857 87.7557C51.934 87.7557 52.9891 85.4471 54.8511 80.7677C56.7131 76.0882 59.3199 69.4746 62.6094 60.8644C63.9749 57.4328 65.3403 54.0012 66.7058 50.4448C68.0712 46.8885 69.0643 44.3928 69.747 42.8329C71.9814 37.28 73.8434 32.8501 75.333 29.4185C76.8226 25.9869 78.0019 23.2416 78.9329 21.0579C79.8638 18.9365 80.6087 17.1896 81.2293 15.8793C81.85 14.5691 82.4706 13.2588 83.0913 11.9486C83.6499 10.8879 84.2085 9.82721 84.7671 8.82893C85.3257 7.83065 85.7601 7.08193 86.0084 6.70758C86.3187 6.33322 86.6911 5.77169 87.0635 5.21015C87.4359 4.58623 87.7463 4.02469 87.9945 3.58794C88.3049 3.0888 88.6152 2.65206 88.9255 2.21531C89.2359 1.77856 89.4221 1.46659 89.6083 1.27942C89.8565 0.967453 90.2289 0.780273 90.7255 0.780273C90.9737 0.780273 91.0979 0.842667 91.0979 1.02985C91.0979 1.27942 90.9737 1.71616 90.6634 2.34009C90.3531 2.96402 90.1669 3.33837 90.1048 3.33837C90.0427 3.33837 89.7945 3.65034 89.4841 4.21187C89.1738 4.7734 88.7393 5.52212 88.2428 6.33322C87.7463 7.20672 87.2497 8.08022 86.7532 9.0785C86.2567 10.0768 85.7602 11.0127 85.3878 11.8862C83.2154 16.1289 81.1673 20.6211 79.1811 25.363C77.2571 30.1048 75.3951 34.7843 73.7193 39.339C73.0986 40.9612 72.0435 43.5193 70.678 47.0132C69.3126 50.5072 67.9471 53.9388 66.5817 57.3704C63.9749 64.296 61.7405 70.1609 59.8164 75.0276C57.8924 79.8942 56.4648 83.3258 55.5959 85.2599C55.4097 85.6967 55.2856 86.0087 55.1615 86.3206C55.0373 86.6326 54.9132 86.8822 54.8511 87.1317C54.6649 87.4437 54.5408 87.7557 54.4787 88.0052C54.5408 88.0676 54.9132 87.5061 55.4718 86.2582C56.0304 85.0104 56.7752 83.2634 57.6441 81.142C58.513 79.0207 59.5682 76.4626 60.7474 73.5925C61.9267 70.7225 63.1059 67.6652 64.3473 64.4208C67.2023 56.8089 69.4988 50.6944 71.2366 46.2021C73.0366 41.7099 73.9675 39.5261 74.1537 39.7133L73.6572 40.9612C73.471 41.7099 73.1607 42.7082 72.54 44.0184C72.0435 45.1415 71.2366 47.138 70.1815 50.0705C69.0643 52.9406 68.0092 55.873 66.8299 58.8055C63.168 68.4139 60.313 75.7763 58.1406 80.9549C55.9683 86.1335 54.7891 88.6915 54.4167 88.6292C54.3546 88.5668 54.2925 88.5044 54.2305 88.5668C54.1684 88.6292 54.2305 88.6916 54.2925 88.8787C54.2925 89.0659 53.9822 89.6898 53.4236 90.8129C52.8029 91.8112 52.4305 92.5599 52.4305 93.1214C52.4926 93.4334 52.6167 93.6206 52.8029 93.6206C53.2995 93.3086 54.6649 90.3762 56.8993 84.8856C59.1337 79.395 61.9887 72.2199 65.4024 63.3601C67.5127 57.8072 70.0574 51.3183 73.0986 43.7688C76.1399 36.2193 79.2432 28.545 82.4706 20.7459C82.6568 20.434 82.843 19.9348 83.1534 19.2485C83.4637 18.5622 83.774 17.8759 84.2085 17.2519C85.7602 14.0075 86.8774 11.699 87.5601 10.3887C88.2428 9.0785 88.6773 8.32979 88.8635 8.26739C89.1117 8.01782 89.36 7.51868 89.6083 6.70758C89.7945 6.33322 89.9807 5.89647 90.2289 5.45972C90.4772 5.02298 90.6634 4.71101 90.8496 4.33666C91.3461 3.71273 91.7185 3.0888 91.9668 2.65205C92.5254 1.84095 92.9598 1.4042 93.2081 1.4042C93.2702 1.4042 93.3943 1.46659 93.4564 1.52899C93.6426 1.59138 93.2702 2.77684 92.3392 5.08537C91.7806 6.39562 91.0979 7.89304 90.4151 9.57764C89.7324 11.2622 88.9876 12.9468 88.3669 14.6315C87.7463 16.3161 87.1256 17.7511 86.6291 18.9365C86.1326 20.1844 85.8222 20.9331 85.6981 21.2451C85.636 21.4946 85.5119 21.7442 85.3878 22.1186C85.2636 22.4305 85.1395 22.6801 85.0774 22.8673C84.8912 23.0545 84.643 23.4912 84.3326 24.3023C84.0223 25.1134 83.6499 25.9869 83.2154 26.8604C82.781 27.8587 82.4086 28.857 81.9741 29.9177C81.5396 30.9783 81.2293 31.727 80.981 32.2262C80.7948 32.7253 80.6087 33.2869 80.4225 33.8484C80.2363 34.4723 80.0501 34.9715 79.8639 35.3458C79.8018 35.6578 79.4915 36.4065 79.057 37.592C78.6225 38.7774 78.126 40.0253 77.5674 41.4603C77.3191 42.0842 76.9467 43.0201 76.4502 44.2056C75.9537 45.391 75.4571 46.7013 74.8985 48.1363C74.3399 49.5713 73.7193 51.1312 73.1607 52.7534C72.54 54.3756 71.9814 55.9354 71.4228 57.4952C68.5678 64.8576 66.1472 71.1592 64.1611 76.4002C62.1129 81.5788 60.5612 85.4471 59.444 88.0052C58.3889 90.2514 57.8924 91.4368 58.0165 91.4368C58.0786 91.4368 58.7613 90.2514 59.9406 87.8805C60.9336 85.7591 62.1129 82.8267 63.6645 79.0831C65.1541 75.3395 67.1403 70.1609 69.685 63.6097C69.9953 62.7986 70.8022 60.7396 72.1056 57.3704C73.409 54.0636 74.9606 50.0705 76.6985 45.5782C78.4984 41.0236 80.4225 36.2193 82.4706 31.1655C84.5188 26.1117 86.4429 21.4323 88.1807 17.1272C89.9186 12.8845 91.3461 9.32807 92.5254 6.45801C93.7046 3.58795 94.3874 2.15291 94.5115 2.09052C94.7598 1.90334 95.008 1.96574 95.2563 2.2777C95.5046 2.58966 95.5666 2.90163 95.5046 3.33837C95.4425 3.89991 95.5046 4.21187 95.7528 4.21187C96.0011 4.21187 96.1252 4.14948 96.2494 3.9623C96.4976 3.65034 96.6218 3.65034 96.6218 4.08709C96.6218 4.58623 96.4976 5.02298 96.2494 5.39733C96.0632 5.58451 95.939 5.89647 95.8149 6.5204C95.6908 7.08193 95.5666 7.70586 95.3804 8.32979C95.0701 9.70243 94.3253 12.011 93.2081 15.1306C92.0909 18.3126 90.9117 21.4946 89.6703 24.6143C88.429 27.7339 87.3739 30.5416 86.3808 32.9125C85.3878 35.2834 84.8292 36.3441 84.705 36.0945C84.643 35.7826 84.8292 34.8467 85.3878 33.2869C85.8843 31.727 87.0015 28.9194 88.6152 24.7391C89.4221 22.8049 90.2289 20.6211 91.0979 18.2502C91.9668 15.8793 92.7116 13.6956 93.3943 11.7614C94.077 9.76482 94.6356 8.08022 95.0701 6.70758C95.5046 5.33494 95.6908 4.58623 95.6287 4.52383C95.5666 4.46144 95.4425 4.39905 95.3804 4.39905C95.3184 4.39905 95.1942 4.58623 95.1322 4.89819C95.1322 5.21015 94.8839 6.08365 94.3874 7.51868C93.8908 8.95372 93.2702 10.6383 92.5874 12.6349C91.8427 14.6314 91.0979 16.7528 90.2289 19.0613C89.36 21.3075 88.5531 23.4912 87.7463 25.5502C86.9394 27.6091 86.2567 29.2937 85.6981 30.7288C85.1395 32.1638 84.705 33.0373 84.4568 33.474L84.0844 34.098L84.2085 33.474L84.3326 33.2245V32.9749C84.1464 32.9749 83.5878 34.2227 82.6568 36.7808C82.2224 37.6543 81.912 38.4655 81.6638 39.0894C81.4155 39.7133 81.2914 40.0877 81.2914 40.2124C81.4776 40.2124 81.7258 39.7757 82.0362 38.9022C82.4086 37.9039 82.6568 37.4672 82.781 37.4672C82.781 37.5296 82.5327 38.2783 82.0362 39.6509C81.5396 41.0236 80.919 42.7082 80.1121 44.6423C79.3673 46.5765 78.4984 49.0098 77.3812 51.8799C76.264 54.7499 75.333 57.2456 74.5262 59.367C72.6021 64.5456 70.8642 69.1003 69.4367 72.9062C68.0092 76.7122 66.6437 80.019 65.5265 82.8266C64.3473 85.6343 63.3542 88.0052 62.4232 89.877C61.5543 91.8112 60.6854 93.4334 59.8785 94.806L59.0096 96.3659C59.1958 96.3659 59.7544 95.5547 60.6854 93.9325C61.6784 92.3103 62.6094 90.6257 63.4783 88.8163C64.0369 87.5685 64.6576 86.1958 65.3403 84.636C66.0231 83.0762 66.8299 81.142 67.6989 78.9583C68.5678 76.7745 69.6229 74.2165 70.7401 71.2216C71.8573 68.2268 73.1607 64.7952 74.5882 60.802C77.5053 52.9406 79.6777 47.138 81.1673 43.4569C82.6568 39.7757 83.5258 37.7791 83.774 37.4048C83.8361 37.3424 83.9602 37.28 84.0223 37.28L84.1464 37.1552C84.3326 37.1552 84.1464 37.7791 83.712 39.027C83.2775 40.2748 82.3465 42.7705 80.981 46.3893C80.3604 48.0739 79.4915 50.3201 78.4984 53.0029C77.5053 55.7482 76.5743 58.1191 75.7675 60.2405C71.7952 70.972 68.6298 79.2079 66.2713 84.8856C63.9128 90.6257 61.9267 94.6813 60.375 96.9898C59.382 98.5496 58.9475 99.2983 59.0716 99.2983L59.1958 99.1735C59.2578 99.1735 59.382 99.1111 59.5682 98.9239C60.6854 97.8633 61.9887 95.8667 63.4783 92.8095C64.9679 89.8146 66.9541 85.26 69.3746 79.1455C69.9953 77.5857 70.5539 76.2754 70.9884 75.2147C71.4228 74.0917 71.7332 73.5301 71.9194 73.4677C72.6642 72.5942 71.8573 75.0276 69.4988 80.7677C69.0643 81.8284 68.4437 83.3882 67.5747 85.5095C66.7058 87.6309 65.6507 89.8146 64.5335 91.9984C63.4163 94.2445 62.237 96.3035 60.9336 98.1752C59.6923 100.047 58.513 101.232 57.3338 101.856C57.1476 101.919 57.0855 101.981 57.1476 101.919C57.2096 101.856 57.2717 101.794 57.4579 101.607C57.8303 101.17 57.9544 100.983 57.8303 100.983C57.6441 100.983 57.3338 101.295 56.7131 101.856C56.0925 102.48 55.3477 102.855 54.5408 102.855C53.7339 102.855 52.865 102.605 51.8719 102.106C51.3754 101.919 51.0651 101.856 50.8789 101.856C50.6927 101.856 50.5685 101.919 50.3823 101.981C49.8858 102.231 49.2652 102.356 48.5824 102.356C47.217 102.356 45.7894 101.794 44.424 100.609C42.9965 99.4231 42.0034 98.3 41.3207 97.1146C39.2104 93.1214 37.5967 85.8839 36.4795 75.4019L36.3554 73.4677L34.183 78.8335C32.6314 82.6395 31.328 85.8215 30.3349 88.3796C29.2798 90.9377 28.4109 93.1214 27.6661 94.8684C26.9213 96.6154 26.3006 97.9881 25.8041 99.0487C25.3075 100.109 24.811 101.045 24.4386 101.856C23.6318 103.104 23.0732 103.853 22.7628 104.165L22.1422 104.415L22.7628 103.541C23.3835 102.543 24.0662 101.482 24.6248 100.234C25.1834 98.9863 25.9282 97.5513 26.673 95.9291C27.4178 94.2445 28.2867 92.2479 29.2798 89.9394C30.2729 87.6309 31.39 84.8232 32.6934 81.5788C35.114 75.4643 36.2933 72.1575 36.2312 71.596C36.2312 71.284 36.045 71.5336 35.6726 72.3447C35.3002 73.1558 34.6175 74.8404 33.5624 77.3361C29.7143 87.0693 26.7351 94.1821 24.6248 98.5496C22.5766 102.917 21.1491 105.101 20.4664 105.101C19.5974 104.976 19.163 104.726 18.6044 104.352ZM19.7216 25.2382C19.6595 24.9886 19.5354 24.8638 19.4733 24.8638V25.6126C19.4733 26.2365 19.5354 26.6108 19.5974 26.7356C19.7836 26.9228 19.8457 26.798 19.9078 26.4237C19.9078 26.0493 19.8457 25.675 19.7216 25.2382ZM21.3974 85.8215C21.3353 85.7591 21.2732 85.8215 21.2732 86.0711C21.2732 86.3206 21.3353 86.383 21.3974 86.3206C21.5836 86.3206 21.5836 86.1335 21.3974 85.8215ZM27.1075 81.454C29.7143 75.3395 31.7624 70.2857 33.3141 66.1678C34.8658 62.0499 35.6726 59.679 35.7347 59.055V58.8055C35.5485 58.8055 35.052 60.0533 34.183 62.6114C33.7486 63.9217 33.0658 65.7934 32.1348 68.2268C31.1418 70.6601 30.2108 72.9686 29.3419 75.1524C28.4729 77.2737 27.6661 79.0831 27.0454 80.7053C26.4247 82.2651 26.0523 83.1386 26.0523 83.3258C25.8661 83.513 25.742 83.513 25.5558 83.4506C25.4937 83.3882 25.4317 83.3258 25.4317 83.3882C25.4317 83.4506 25.4937 83.513 25.5558 83.5754C25.742 83.7625 25.742 84.0121 25.6179 84.4489C25.4937 84.8856 25.3696 84.948 25.1834 84.8232C24.9351 84.5736 24.8731 84.6984 25.0593 85.1976C25.2455 85.5095 25.1834 85.5719 24.9351 85.3223C24.7489 85.26 24.6869 85.1976 24.6248 85.2599C24.5628 85.3223 24.6248 85.3848 24.6869 85.4471C24.8731 85.6343 24.8731 85.8839 24.7489 86.3206C24.6248 86.7574 24.5007 86.8198 24.3145 86.695C24.2524 86.5078 24.2524 86.6326 24.3145 87.0693C24.5628 87.5685 24.5007 87.5685 24.0662 87.1941C23.7559 87.007 23.6938 87.0694 23.9421 87.3189C24.1283 87.5685 24.0662 87.9428 23.818 88.5044C23.5697 89.0035 23.3835 89.1907 23.1973 89.0659C23.1352 89.0035 23.0732 88.9411 23.0732 89.0035C23.0732 89.0659 23.1352 89.1283 23.1973 89.1907C23.3835 89.4403 23.2594 89.877 22.949 90.5633C22.6387 91.2497 22.3904 91.5616 22.2042 91.4992C22.1422 91.4368 22.0801 91.4992 22.0801 91.7488C22.2663 91.936 22.1422 92.2479 21.8318 92.8719C21.5836 93.371 21.4594 93.8078 21.4594 94.1821C21.5215 94.6189 23.3835 90.4385 27.1075 81.454ZM24.1904 95.9291C25.0593 94.1197 26.2385 91.5616 27.6661 88.2548C29.0936 84.948 30.397 81.6412 31.6383 78.4592C32.8796 75.2771 33.9348 72.4695 34.8037 70.1609C35.6726 67.8524 35.983 66.7917 35.7347 67.0413C35.7347 67.1037 35.4244 67.9148 34.8037 69.3498C34.183 70.7849 33.4382 72.6566 32.5693 74.8404C31.7004 77.0241 30.7073 79.395 29.5901 81.9531C28.4729 84.5112 27.4799 86.9446 26.4868 89.1907C25.4937 91.4368 24.6869 93.4334 24.0042 95.118C23.3214 96.8026 22.8249 97.8009 22.6387 98.2376C21.8939 99.6727 21.5215 100.484 21.5215 100.671C21.5215 101.482 22.3904 99.9222 24.1904 95.9291ZM22.1422 71.7207V69.0379L22.018 71.3464C21.956 71.9703 21.8939 72.719 21.8318 73.5301C21.7698 74.3412 21.7698 75.0276 21.7698 75.5891L21.8939 77.6481L22.018 75.9635C22.0801 75.5891 22.1422 74.9028 22.2042 74.0917C22.2042 73.2182 22.2042 72.4071 22.1422 71.7207ZM24.4386 79.5198C25.8661 76.0882 27.2937 72.5942 28.6591 69.0379C30.0246 65.4815 31.2659 62.1747 32.3831 59.1798C33.5003 56.185 34.3692 53.6269 35.052 51.5055C35.7347 49.3842 36.1071 48.0739 36.1071 47.5748C36.1071 47.2628 36.045 47.0756 35.983 47.0756C35.9209 47.0756 35.7347 47.45 35.4244 48.1987C35.114 48.9474 34.6796 50.2577 34.0589 52.1294C31.328 59.9909 28.2867 67.79 24.9972 75.5267C24.2524 77.3361 23.6318 78.8335 23.1352 80.1438C22.6387 81.454 22.3284 82.1403 22.3284 82.2027H22.8249C22.6387 82.4523 22.5146 82.9514 22.3284 83.6377C22.1422 84.3865 22.1422 84.636 22.3284 84.5113C22.3904 84.4489 22.6387 83.8873 23.0732 82.9514C23.3835 81.9532 23.88 80.7677 24.4386 79.5198ZM22.3904 44.268C22.3904 44.0808 22.3904 43.956 22.3284 43.7688C22.2663 43.5816 22.2663 43.4569 22.2663 43.3945C22.2663 43.0825 22.3284 43.1449 22.5146 43.644L22.6387 44.5175H22.5146C22.5146 44.4551 22.4525 44.3304 22.3904 44.268ZM26.1144 73.5301C26.1144 73.2806 26.1765 73.0934 26.3627 72.9062C26.6109 72.6566 26.7351 72.5942 26.7351 72.6566C26.7351 72.9062 26.6109 73.1558 26.3627 73.4053C26.2385 73.7173 26.1144 73.7797 26.1144 73.5301ZM26.7351 72.1575C26.7351 72.0951 26.7971 71.8455 26.9833 71.5336C27.1695 71.2216 27.2316 71.1592 27.2316 71.4088C27.2316 71.4712 27.1695 71.7207 26.9833 72.0327C26.7971 72.4071 26.7351 72.4071 26.7351 72.1575ZM48.7686 46.8261C48.7686 46.6389 48.7686 46.5765 48.8307 46.5141C48.8928 46.4517 48.8928 46.5141 48.8928 46.7013C49.079 46.8885 49.079 47.0132 48.8928 47.2004V47.0756C48.8307 47.0756 48.7686 47.0132 48.7686 46.8261ZM49.2652 54.2508C49.2031 54.0636 49.141 53.6893 49.0789 52.9405C49.0169 52.2542 49.0169 51.5055 49.0169 50.6944L49.141 47.8867L49.3893 49.8209C49.5755 50.944 49.6376 52.1295 49.5755 53.3149C49.5134 54.5628 49.4514 54.8123 49.2652 54.2508ZM50.5065 86.9446C50.5065 86.7574 50.5065 86.7574 50.4444 86.8198C50.3823 86.8822 50.3823 87.1317 50.3823 87.4437C50.3823 87.6933 50.3823 87.8804 50.4444 88.0052C50.5065 88.13 50.5065 88.13 50.5065 87.9428C50.6306 87.6309 50.6306 87.3189 50.5065 86.9446ZM72.9124 69.2874C72.9124 69.1003 72.9745 68.9755 73.1607 68.7883C73.3469 68.7883 73.3469 68.8507 73.2848 69.0379C73.2228 69.2874 73.0986 69.4122 73.0366 69.4746C72.9745 69.4746 72.9124 69.4122 72.9124 69.2874ZM74.1537 66.355C74.1537 66.1678 74.2158 65.9182 74.402 65.4815C74.5882 65.1071 74.7744 64.4208 75.0847 63.5473C75.3951 62.6738 75.7675 61.4883 76.3881 59.9909C76.9467 58.5559 77.6915 56.6841 78.5605 54.3756C78.7467 53.814 78.9329 53.1901 79.2432 52.5038C79.5535 51.8175 79.7397 51.2559 79.9259 50.8816C81.0431 47.6996 81.9741 45.2039 82.7189 43.3321C83.4637 41.4603 83.8982 40.5244 84.0223 40.5244C84.2706 40.5244 83.2775 43.2697 81.1052 48.6978C80.6707 49.8209 80.1742 51.3183 79.4915 53.1901C78.8087 55.0619 78.126 56.8089 77.5053 58.4311C75.4572 63.9841 74.402 66.7293 74.2158 66.7293V66.355H74.1537ZM77.1329 30.8535C77.1329 30.7912 77.195 30.5416 77.3812 30.2296C77.5674 29.9177 77.6295 29.8553 77.6295 30.1048C77.6295 30.3544 77.5674 30.5416 77.3812 30.7288C77.2571 31.1031 77.1329 31.1031 77.1329 30.8535ZM86.7532 33.2245C87.2497 31.9142 87.8083 30.3544 88.429 28.7322C89.0497 27.0476 89.6703 25.5502 90.2289 24.1151C90.7875 22.6801 91.1599 21.869 91.3461 21.6194L91.7185 20.9955L91.5944 21.6194C91.5323 21.8066 91.222 22.5553 90.6634 23.928C90.1669 25.3006 89.5462 26.798 88.9255 28.4202C88.3049 30.0424 87.6842 31.5399 87.1877 32.9125C86.6911 34.2851 86.3808 35.0962 86.2567 35.221C86.2567 35.2834 86.2567 35.3458 86.1946 35.3458C86.1326 35.3458 86.1326 35.4082 86.1326 35.4706H86.0084C86.0084 35.3458 86.2567 34.5971 86.7532 33.2245ZM94.3874 13.1964C94.3874 13.0092 94.4494 12.6973 94.5736 12.1357C94.6977 11.6366 94.8218 11.3246 95.008 11.3246C95.0701 11.3246 95.008 11.7614 94.7598 12.6349C94.5115 13.2588 94.3874 13.446 94.3874 13.1964ZM95.5666 8.08022C95.5666 7.76825 95.6287 7.45629 95.8149 7.08193C96.0011 6.58279 96.0632 6.58279 96.0632 6.95715C96.0632 7.14433 96.0011 7.45629 95.8149 7.95543C95.6908 8.26739 95.5666 8.32979 95.5666 8.08022Z" fill="#F9EFDE"/>
<path d="M96.6838 99.9846C93.8288 99.7351 91.7185 99.2983 90.2289 98.6744C88.8014 98.0505 87.1877 96.865 85.5119 95.118C83.6499 93.059 82.2844 91.3121 81.4776 89.7522C80.6086 88.1924 79.988 86.1958 79.6156 83.6377C78.2501 76.1506 79.8018 69.1003 84.3326 62.4242C88.3049 56.4969 92.7737 53.0029 97.801 51.9423C98.1734 51.8799 98.6079 51.8175 98.9803 51.7551C99.3527 51.6927 99.7251 51.6927 100.16 51.6927C101.215 51.6927 102.332 51.9423 103.573 52.379C104.815 52.8158 105.932 53.4397 107.111 54.126C108.228 54.8747 109.221 55.6858 110.152 56.5593C111.021 57.4328 111.704 58.3687 112.2 59.367C112.511 59.9909 112.697 60.4901 112.759 60.7396C112.821 61.0516 112.759 61.6131 112.573 62.4866C112.262 63.9217 111.518 65.5439 110.463 67.2909C109.345 69.0379 108.042 70.5977 106.552 71.9703C105.497 72.8438 105.063 73.4054 105.249 73.5301C105.249 73.5925 105.125 73.7173 104.877 73.9045C104.69 73.9045 104.442 74.0293 104.008 74.2165C103.573 74.4036 103.201 74.5908 102.766 74.778C102.27 75.0276 101.649 75.2771 100.842 75.5891C100.035 75.9011 99.2906 76.0882 98.5458 76.2754C97.5528 76.5874 96.808 76.7746 96.1873 76.8369C95.5666 76.8993 94.7598 76.8993 93.7046 76.8993L91.2841 76.7746L90.7875 78.7087C90.7255 79.3327 90.6013 79.8942 90.4151 80.2685C90.3531 80.4557 90.291 80.5805 90.291 80.7677V78.8335C90.291 77.5233 90.2289 76.8993 90.1669 76.8993C90.1048 76.8993 89.9186 77.8976 89.6703 79.9566C89.0497 85.0104 89.7945 89.1907 91.9668 92.4975C92.5874 93.4958 93.084 94.1197 93.3943 94.3693C93.7046 94.6813 94.1391 94.8684 94.6977 95.0556C97.0562 95.0556 99.3527 94.5565 101.711 93.4958C102.953 92.8719 104.38 91.936 106.056 90.8129C107.732 89.6898 109.407 88.442 111.083 87.007C112.759 85.6343 114.249 84.1993 115.676 82.8266C117.104 81.3916 118.221 80.0814 119.028 78.8959C120.145 77.2737 121.448 75.5267 122.876 73.6549C124.303 71.7831 125.296 70.5977 125.855 70.0985C126.6 69.5994 126.972 69.4746 127.096 69.5994C127.407 69.849 126.662 71.284 124.924 73.8421C124.179 74.8404 123.931 75.2771 124.055 75.2771C124.241 75.09 124.365 74.9028 124.552 74.6532C124.738 74.466 125.048 74.0917 125.545 73.4053C126.662 71.8455 127.469 70.8472 127.903 70.4105C128.338 69.9738 128.648 69.849 128.834 69.9738C129.082 70.1609 129.02 70.5977 128.71 71.284L128.089 72.5319L128.958 71.4088C129.455 70.8472 129.827 70.5353 130.2 70.5353C130.758 70.5353 130.634 71.284 129.827 72.8438L129.207 74.0917L130.2 72.8438C130.758 72.2823 131.069 71.9703 131.193 71.9703V72.0951C131.193 72.1575 131.131 72.2823 131.069 72.3447C130.82 73.0934 130.324 74.0917 129.641 75.3395C128.896 76.5874 128.214 77.6481 127.593 78.4592C127.158 78.8959 126.724 79.4574 126.165 80.1438C125.607 80.8925 125.11 81.5164 124.738 82.0779C124.303 82.6395 123.807 83.3258 123.248 84.0121C122.628 84.7608 122.131 85.3224 121.759 85.6967C120.766 86.9446 120.331 87.6309 120.455 87.7557C120.703 88.0052 120.641 88.0676 120.331 87.8805C120.145 87.6933 120.021 87.8181 119.835 88.13C119.338 88.3796 119.152 88.5044 119.214 88.5044C119.152 88.5044 118.842 88.6916 118.407 89.0659C117.973 89.4403 117.414 89.877 116.793 90.4386C115.49 91.5616 114.559 92.3727 114 92.7471C113.504 92.9343 113.318 93.059 113.38 93.1214C113.566 93.3086 113.193 93.6206 112.262 94.1197C111.518 94.6813 111.145 95.0556 111.145 95.2428C111.145 95.43 110.835 95.6795 110.152 95.9915C109.842 96.1787 109.656 96.3035 109.532 96.3659C109.469 96.4283 109.345 96.553 109.283 96.6154C109.283 96.6778 109.035 96.865 108.601 97.1146C108.166 97.3641 107.608 97.6761 106.987 98.1128C105.87 98.6744 104.69 99.1735 103.449 99.4855C102.208 99.8598 101.277 100.047 100.656 100.047C100.47 100.047 100.035 100.047 99.3527 99.9846C98.3596 100.109 97.5528 100.047 96.6838 99.9846ZM84.0844 68.6635C84.3326 68.2268 84.5188 67.8524 84.7671 67.4156C84.9533 66.9789 85.1395 66.7293 85.3257 66.5422C85.8222 65.6687 86.7532 64.3584 88.2428 62.6114C89.6703 60.9268 91.4082 59.1174 93.3323 57.2457C93.7047 56.8089 94.077 56.4969 94.3874 56.1226C94.6977 55.8106 94.7598 55.6234 94.6977 55.6234C94.6356 55.4363 94.2012 55.5611 93.5184 55.9978C92.8357 56.4345 92.0909 56.9337 91.222 57.5576C90.3531 58.1815 89.5462 58.9302 88.6773 59.679C87.8083 60.4277 87.1877 61.1764 86.8153 61.8003C86.1946 62.6738 85.5739 63.7345 85.0154 64.8576C84.4568 65.9806 84.0223 67.0413 83.712 67.9148C83.2154 69.3498 83.0292 70.0985 83.0913 70.0985C83.0292 70.2233 83.4016 69.7242 84.0844 68.6635ZM88.6773 67.79C89.9807 65.4191 91.7806 62.861 94.1391 59.9909C94.6356 59.4918 94.7598 59.1798 94.6356 58.9926C94.5736 58.8055 94.2012 59.055 93.5184 59.7414C92.8978 60.3653 92.2151 61.114 91.4703 61.9875C90.7255 62.861 90.1048 63.6721 89.5462 64.5456C88.9876 65.4191 88.6773 65.9182 88.6773 66.1678C88.6773 66.355 88.5531 66.6045 88.3669 66.9789C88.1807 67.3533 87.9945 67.79 87.8083 68.2891C86.8153 69.9114 86.567 70.7225 86.9394 70.7225C87.0015 70.7225 87.2497 70.4105 87.5601 69.849C87.9325 69.2874 88.2428 68.6011 88.6773 67.79ZM89.1738 65.4815C89.36 65.2319 89.5462 64.9823 89.7945 64.608C90.0427 64.296 90.2289 63.9841 90.4151 63.7345C90.6013 63.4849 90.7255 63.3601 90.7875 63.3601C90.7875 63.4225 90.7255 63.5473 90.6634 63.6097L90.1669 64.3584C89.36 65.6063 88.9255 66.1678 88.8635 66.1678L89.1738 65.4815ZM91.4703 69.4746C92.3392 67.79 93.2702 66.355 94.1391 65.1695C95.008 63.9841 96.0632 62.7986 97.1804 61.5507C98.5458 60.1781 99.1044 59.4918 98.8562 59.4918C98.7941 59.4918 98.67 59.5542 98.6079 59.6166C97.801 60.1157 96.9942 60.802 96.1873 61.6755C95.3804 62.549 94.5736 63.5473 93.8288 64.5456C93.084 65.5439 92.4013 66.6045 91.7806 67.6652C91.1599 68.7259 90.7255 69.7242 90.4151 70.5977C90.2289 71.0344 90.2289 71.2216 90.4151 71.2216C90.4772 71.2216 90.7875 70.6601 91.4703 69.4746ZM93.146 69.849C94.4494 67.3533 96.1873 64.9823 98.4837 62.7986C99.7251 61.5507 100.16 60.9892 99.9113 60.9892C99.7251 60.9892 98.9803 61.5507 97.6148 62.6738C95.8149 64.296 94.2012 66.4174 92.7736 69.0379C92.153 70.3481 91.9047 70.972 92.153 70.972C92.5254 70.972 92.8357 70.5977 93.146 69.849ZM96.3114 69.3498C97.9251 68.4763 99.4147 67.3533 100.718 65.9806C102.022 64.608 102.89 63.3601 103.325 62.1123C103.573 61.4883 103.697 60.8644 103.759 60.3029C103.821 59.7414 103.759 59.4294 103.573 59.4294C103.511 59.4294 103.201 59.6166 102.704 59.9285C102.208 60.2405 101.649 60.6772 101.091 61.1764C100.532 61.6755 99.8492 62.1747 99.2906 62.6114C98.732 63.0482 98.2355 63.4849 97.9252 63.8593C97.0562 64.7328 96.1252 65.9806 95.1322 67.478C94.1391 68.9755 93.7046 69.9114 93.7046 70.3481C93.6426 70.6601 94.5115 70.3481 96.3114 69.3498ZM100.904 69.1627C101.401 68.8507 101.897 68.4763 102.332 67.9772C102.828 67.5404 103.201 67.1661 103.449 66.7917C103.884 66.1678 104.256 65.3567 104.69 64.4832C105.063 63.6097 105.187 63.0482 105.063 62.9234L103.759 64.608C103.449 65.1071 103.015 65.6687 102.456 66.355C101.897 67.0413 101.339 67.6652 100.78 68.2268C100.284 68.7259 99.9113 69.1626 99.5389 69.537C99.2286 69.9738 99.1044 70.1609 99.1665 70.1609C99.2285 70.1609 99.4768 70.0361 99.8492 69.7866C100.222 69.537 100.532 69.3498 100.904 69.1627ZM105.187 68.2891C105.373 68.3515 105.746 67.9772 106.49 67.1037C107.173 66.2302 107.67 65.6063 107.856 65.1071L108.352 63.5473C108.166 63.5473 107.918 63.8593 107.608 64.4208C107.297 64.8576 106.925 65.2943 106.552 65.7934C106.18 66.2926 105.808 66.7917 105.373 67.1661C104.628 68.0396 104.256 68.6011 104.256 68.7259C104.256 68.7883 104.38 68.7259 104.628 68.4763C104.877 68.2268 105.063 68.2268 105.187 68.2891ZM105.621 73.1558C106.366 72.5942 107.297 71.7207 108.476 70.4729C109.656 69.225 110.525 68.2268 111.083 67.2909C111.269 66.9789 111.394 66.7293 111.58 66.5422C111.766 66.355 111.89 66.2302 111.952 66.043C112.138 65.8558 112.262 65.731 112.325 65.5439C112.511 65.5439 112.262 66.043 111.58 67.1037C111.269 67.6652 110.773 68.3515 110.214 69.0379C109.594 69.7866 108.973 70.4729 108.29 71.1592C107.608 71.8455 106.987 72.4071 106.428 72.7814C105.87 73.2182 105.435 73.4053 105.187 73.4053L105.621 73.1558ZM105.187 68.0396C105.187 67.79 105.311 67.6028 105.559 67.5404C105.87 67.2909 105.932 67.3533 105.683 67.6652C105.311 67.9772 105.187 68.102 105.187 68.0396ZM108.414 68.9131C108.725 68.4763 109.097 67.9772 109.469 67.3533C109.842 66.7293 110.028 66.2926 110.028 66.1054L108.787 67.5404C108.352 68.0396 107.98 68.5387 107.483 69.0379C107.049 69.537 106.677 69.9737 106.304 70.2233C105.683 70.8472 105.311 71.2216 105.311 71.3464C105.311 71.5336 105.683 71.2216 106.552 70.5353C107.421 69.849 108.042 69.2874 108.414 68.9131ZM105.87 66.9165L106.366 66.4174C106.739 65.9806 106.801 66.043 106.49 66.5422C106.118 67.1661 105.87 67.2909 105.87 66.9165ZM114.124 86.8198C114.993 86.0087 115.924 85.0728 116.855 84.0745C117.786 83.0762 118.159 82.5771 118.035 82.5771C117.973 82.5771 117.848 82.6395 117.786 82.7019C117.6 82.7642 116.793 83.513 115.304 84.948C113.814 86.383 112.325 87.8181 110.897 89.2531C110.09 90.0018 109.718 90.3762 109.78 90.3762L110.028 90.2514C110.276 90.0018 110.463 89.877 110.649 89.7522C110.959 89.5027 111.456 89.1283 112.138 88.5668C112.821 88.0676 113.504 87.4437 114.124 86.8198ZM112.573 93.1214C112.511 93.059 112.635 92.9343 112.945 92.7471C113.318 92.5599 113.938 92.1231 114.745 91.4368C115.49 90.6881 116.173 90.1266 116.793 89.6274C117.414 89.0035 117.662 88.6292 117.538 88.6292C117.352 88.442 116.855 88.754 116.049 89.5027C115.18 90.2514 114.249 91.0625 113.193 91.936C111.89 93.059 111.518 93.6206 111.952 93.6206C112.014 93.6206 112.138 93.5582 112.2 93.4958C112.449 93.371 112.573 93.2462 112.573 93.1214ZM124.179 81.8284C124.365 81.5164 124.055 81.7036 123.31 82.4523C123 82.889 122.69 83.201 122.379 83.5754C122.069 83.8873 121.883 84.1369 121.821 84.3241C121.759 84.636 122.007 84.4488 122.69 83.7001C123.372 82.889 123.869 82.2651 124.179 81.8284ZM126.103 79.6446C126.289 79.395 126.476 79.0831 126.724 78.7087C126.972 78.3344 127.158 78.0848 127.345 77.8976L127.469 77.6481V77.5233L127.593 77.3985C127.531 77.3985 127.469 77.4609 127.469 77.5233L126.972 78.0224C125.172 79.9566 124.552 80.8925 125.048 80.7053C125.421 80.4557 125.793 80.0814 126.103 79.6446Z" fill="#F9EFDE"/>
<path d="M123.931 108.969C123.434 108.657 123.124 108.47 122.938 108.47C122.69 108.47 122.317 107.659 121.759 106.099C121.262 104.539 120.828 103.042 120.579 101.669C120.331 99.9846 120.145 98.5496 119.959 97.3641C119.773 96.1787 119.773 95.43 119.959 95.118C119.959 94.6813 119.897 94.4317 119.835 94.2445C119.338 93.6206 119.028 90.4386 118.842 84.7608C118.655 80.9549 118.779 76.9617 119.214 72.8438C119.586 68.7259 120.269 64.608 121.138 60.5525C124.365 45.391 128.772 33.4116 134.358 24.7391C135.227 23.4288 136.158 22.3057 137.151 21.2451C138.144 20.2468 138.827 19.7476 139.199 19.7476C139.572 19.7476 139.696 19.8724 139.572 20.122C139.385 20.3716 138.951 20.9331 138.268 21.8066C136.903 23.3664 135.413 25.675 133.924 28.6698C132.372 31.727 130.882 35.0962 129.517 38.8398C128.089 42.5834 126.786 46.5141 125.607 50.632C124.365 54.7499 123.434 58.7431 122.814 62.4242C122.193 66.2302 121.697 69.7242 121.386 72.7814C121.076 75.8387 120.952 78.4592 121.014 80.4557C121.014 81.8284 121.076 82.3275 121.138 81.8908C121.759 73.0934 123.124 64.4208 125.11 55.8106C127.158 47.2004 130.013 38.9022 133.862 30.9783C134.358 30.1048 134.73 29.3561 135.103 28.7322C135.413 28.1083 135.786 27.5467 136.158 26.9852C136.53 26.4237 136.965 25.7997 137.461 25.1134C137.958 24.4271 138.579 23.616 139.261 22.6177C140.565 21.0579 141.372 20.3092 141.682 20.3092C141.744 20.3092 141.868 20.3716 141.93 20.434C142.116 20.4964 142.178 20.7459 142.116 21.0579C142.054 21.3699 141.992 21.7442 141.806 22.1186C141.62 22.4929 141.434 22.8049 141.247 23.1169C141.061 23.4288 140.875 23.5536 140.689 23.5536C140.503 23.5536 140.006 24.3647 139.137 26.0493C138.268 27.7339 137.337 29.6057 136.406 31.6646C135.475 33.7236 134.668 35.6578 133.986 37.4672C133.303 39.2766 132.993 40.2124 133.055 40.3996C133.241 40.5868 133.179 40.6492 132.931 40.6492C132.744 40.6492 132.682 40.774 132.682 41.0235C132.931 41.2731 132.869 41.4603 132.434 41.6475C132.186 42.1466 132.062 42.5834 132.062 42.9577C132 43.2073 131.813 43.8312 131.503 44.8919C131.193 45.9526 130.944 47.0756 130.572 48.1987C130.138 49.4466 129.765 50.6944 129.393 52.0671C129.02 53.4397 128.772 54.438 128.586 55.1867C128.338 55.9354 128.151 56.5593 127.965 57.1209C127.779 57.6824 127.655 58.0567 127.593 58.2439C127.034 59.2422 126.227 63.0482 125.172 69.849C124.738 72.2199 124.49 74.8404 124.241 77.7104C124.055 80.5805 123.869 84.1993 123.807 88.5044C123.745 91.936 123.683 94.3069 123.745 95.7419C123.807 97.177 123.869 98.3 124.055 99.2359L124.427 101.295V98.9863C124.427 98.3624 124.427 97.4265 124.365 96.2411C124.303 95.0556 124.241 93.9325 124.179 92.8719C123.993 90.5009 124.055 87.6309 124.241 84.1369C124.427 80.7053 124.862 76.7746 125.545 72.4071C126.662 64.4208 128.462 56.4969 130.82 48.5107C133.179 40.5244 135.848 33.6612 138.765 27.9211C139.882 25.675 140.813 23.9904 141.496 23.0545C142.178 22.0562 142.737 21.6194 143.109 21.6194C143.544 21.6194 143.668 21.869 143.668 22.4305C143.606 22.9297 143.42 23.5536 142.985 24.1775C141.061 27.8587 139.199 32.039 137.461 36.7185C135.724 41.4603 134.172 46.2645 132.806 51.1312C131.441 56.0602 130.262 60.9268 129.269 65.7934C128.276 70.6601 127.593 75.1523 127.096 79.2079C126.91 80.5805 126.786 81.8907 126.662 83.0762C126.538 84.2617 126.538 85.0728 126.6 85.4471V85.9463C126.662 85.9463 126.786 85.1352 126.972 83.513C128.834 66.1054 132.993 49.2594 139.448 32.8501C139.82 31.8518 140.254 30.8535 140.751 29.7929C141.185 28.7322 141.682 27.7339 142.116 26.7356C142.613 25.7373 143.047 24.9262 143.42 24.1775C143.792 23.4288 144.04 22.9921 144.227 22.8673C144.537 22.6177 144.599 22.7425 144.475 23.304C144.289 23.8032 144.04 24.6143 143.606 25.5502C139.137 35.221 135.537 45.391 132.806 55.9978C130.076 66.6669 128.276 77.2737 127.469 87.9428C127.283 89.3155 127.158 90.6257 127.096 91.8112C127.034 92.9966 126.972 93.7454 126.972 94.0573C126.91 94.6189 126.91 95.6171 126.972 96.9898C127.034 98.3624 127.158 99.7975 127.283 101.295C127.407 102.792 127.531 104.165 127.717 105.413C127.903 106.661 128.027 107.472 128.089 107.784C128.276 108.22 128.214 108.532 128.027 108.844C127.841 109.156 127.531 109.281 127.22 109.281C127.158 109.281 126.91 109.219 126.6 109.032C126.538 108.969 126.352 108.907 126.103 108.907C125.855 108.907 125.607 108.969 125.296 109.032C124.986 109.094 124.862 109.219 124.862 109.406C124.862 109.656 124.8 109.78 124.738 109.78C124.676 109.468 124.365 109.281 123.931 108.969ZM121.386 95.118C121.324 94.9308 121.2 94.9932 121.138 95.2428C121.138 95.6795 121.2 95.7419 121.386 95.6171V95.118ZM122.131 98.2376C122.131 98.0505 122.131 97.9881 122.069 98.0505C122.007 98.1128 122.007 98.1752 122.007 98.3624C122.007 98.6744 122.069 98.7992 122.131 98.7368C122.317 98.612 122.317 98.4248 122.131 98.2376ZM124.8 101.42C124.738 101.232 124.676 101.42 124.676 101.919C124.676 102.418 124.738 102.543 124.8 102.418V101.42ZM126.476 94.7436C126.662 92.0608 126.6 90.7505 126.352 90.7505C126.289 90.7505 126.165 91.4992 125.979 92.9343C125.979 93.4334 125.979 94.0573 125.979 94.8684C125.979 95.6795 125.979 96.4906 126.041 97.2393C126.103 97.9881 126.103 98.612 126.165 99.0487C126.227 99.4855 126.227 99.6103 126.227 99.3607C126.289 99.1735 126.352 98.6744 126.352 97.8009C126.352 96.865 126.414 95.8667 126.476 94.7436ZM126.6 87.4437H126.476V88.5668C126.476 89.5651 126.538 89.877 126.6 89.565V87.4437ZM128.338 86.4454C128.338 86.2582 128.338 85.8839 128.4 85.2599C128.462 84.636 128.524 84.3241 128.71 84.3241V85.1976C128.71 85.5095 128.71 85.8215 128.71 86.1334C128.71 86.4454 128.648 86.6326 128.462 86.8198C128.4 87.0069 128.338 87.007 128.276 86.9446C128.214 86.8198 128.214 86.695 128.338 86.4454ZM129.02 80.7053C129.02 80.5181 129.02 80.2685 129.02 79.8318C129.02 79.395 129.082 78.9583 129.269 78.5215C130.634 69.0379 132.558 59.7414 135.103 50.6944C137.586 41.6475 140.875 32.7877 144.909 24.0527C144.971 24.0527 144.785 24.6767 144.289 25.8621C140.875 34.4099 137.958 42.9577 135.475 51.5679C132.993 60.1781 131.007 69.0379 129.455 78.1472C129.269 79.0207 129.145 79.707 129.082 80.2061C129.082 80.7053 129.02 80.8925 129.02 80.7053Z" fill="#F9EFDE"/>
<path d="M155.088 103.728L154.219 103.603C153.971 103.603 153.723 103.603 153.35 103.603C153.04 103.603 152.668 103.541 152.233 103.479C148.695 103.291 145.902 102.106 143.916 99.7351C141.93 97.4265 140.503 94.6189 139.634 91.3744C139.323 90.1266 139.137 89.1907 139.013 88.3796C138.951 87.6309 138.889 86.0711 138.889 83.8249C138.889 82.4523 138.889 81.2668 138.951 80.2061C139.013 79.2079 139.075 78.2096 139.199 77.3361C139.323 76.4626 139.51 75.5267 139.758 74.6532C140.006 73.7797 140.254 72.719 140.627 71.4712C141.372 69.1003 142.303 66.7917 143.544 64.5456C144.785 62.2995 146.213 60.1781 147.951 58.3063C149.688 56.4345 151.675 54.9371 153.847 53.8141C156.019 52.691 158.44 52.1294 161.109 52.1294C162.164 52.1918 163.281 52.5038 164.46 52.9405C165.64 53.3773 166.757 54.0012 167.812 54.6875C168.867 55.4363 169.798 56.2474 170.667 57.1209C171.536 57.9944 172.156 58.9302 172.653 59.9285C173.025 60.5525 173.274 61.0516 173.336 61.2388C173.398 61.4883 173.336 61.8627 173.15 62.3618C172.963 62.861 172.653 63.5473 172.094 64.4832C171.598 65.4191 171.225 65.8558 171.039 65.8558L171.163 65.731C171.163 65.6687 171.163 65.5439 171.225 65.4815C171.288 65.4191 171.288 65.2943 171.288 65.2319C171.598 64.4832 171.598 64.1088 171.163 64.1088C170.977 64.1088 170.853 64.1712 170.791 64.2336L170.543 64.4832C170.481 64.4832 170.419 64.1712 170.419 63.6097C170.419 63.1106 170.357 62.861 170.295 62.861L170.17 62.9858C170.17 63.0482 170.108 63.1729 170.046 63.2353C169.984 63.4225 169.674 63.7969 169.239 64.5456C168.805 65.2319 168.495 65.6063 168.308 65.6063C168.246 65.6063 168.06 65.4815 167.812 65.2319C167.75 65.0447 167.564 64.7952 167.377 64.4208C167.191 64.0465 167.005 63.6721 166.819 63.2353L166.198 61.9251L164.522 62.7986C164.026 63.0482 163.405 63.4849 162.722 64.1088C162.04 64.7328 161.233 65.4191 160.426 66.1054C159.123 67.4157 158.378 68.0396 158.254 68.0396L158.502 67.4156C158.688 67.1037 158.998 66.6669 159.495 66.1054C159.991 65.5439 160.488 64.9823 161.047 64.5456L162.598 62.9858C162.536 62.9858 162.288 63.1106 161.853 63.3601C160.985 63.8593 159.867 64.7328 158.502 66.1054C157.198 67.4157 156.205 68.6635 155.523 69.849C153.475 73.2806 152.047 76.9617 151.24 80.9549C150.371 84.948 150.185 88.7539 150.557 92.4351C150.744 93.7454 150.992 94.9308 151.488 96.0539C151.923 97.177 152.357 97.6761 152.792 97.6761C153.412 97.6761 154.53 97.177 156.143 96.2411C157.757 95.3052 159.309 94.0573 160.922 92.5599C165.826 88.0676 168.495 85.8839 168.805 85.8839C169.674 85.8839 168.246 87.6933 164.46 91.3744C162.598 93.2462 161.729 94.1821 161.791 94.1821C162.04 94.1821 163.715 92.7471 166.757 89.8146C169.177 87.4437 170.605 86.2582 170.977 86.2582C171.163 86.2582 171.039 86.5702 170.605 87.2565C170.295 88.0052 170.17 88.3796 170.232 88.3796C170.481 88.3796 170.853 88.13 171.35 87.6309C171.846 87.0694 172.094 86.7574 172.219 86.7574C172.281 86.8198 172.343 86.9446 172.343 87.007C172.529 87.3189 172.467 87.6933 172.219 88.13C172.157 88.3172 171.846 88.6916 171.288 89.4403C170.791 90.1266 170.17 90.8753 169.488 91.7488C168.805 92.6223 168.122 93.4334 167.377 94.2445C166.633 95.0556 166.074 95.6795 165.702 96.1787L164.584 97.3018L166.136 96.0539C166.571 95.6171 166.881 95.3676 167.191 95.118C167.502 94.9308 167.75 94.6812 168.06 94.3069C168.37 93.9949 168.681 93.5582 169.115 93.059C169.488 92.5599 170.108 91.8736 170.791 91.0001C171.35 90.3762 171.846 89.7522 172.281 89.2531C172.715 88.7539 172.963 88.442 173.087 88.3172C173.398 88.13 173.46 88.3172 173.212 88.7539C172.963 89.1907 172.467 89.877 171.784 90.7505C171.288 91.3744 170.729 92.1855 170.046 93.059C169.364 93.9325 168.743 94.7436 168.184 95.3676C167.626 96.1163 167.005 96.865 166.322 97.6137C165.64 98.3624 165.081 98.9863 164.709 99.3607C163.343 100.609 161.853 101.607 160.364 102.48C158.75 103.291 157.012 103.728 155.088 103.728ZM144.909 69.3498C145.096 69.0379 145.158 68.7883 145.22 68.5387C145.282 68.3515 145.22 68.2891 145.158 68.4763C144.971 68.6635 144.847 68.8507 144.785 69.1003C144.723 69.3498 144.475 69.9114 144.165 70.7849C143.978 71.0344 143.916 71.1592 143.978 71.1592C144.04 71.1592 144.103 71.0344 144.289 70.7849C144.413 70.6601 144.599 70.2233 144.909 69.3498ZM151.923 60.4901C152.792 59.6166 153.537 58.8678 154.033 58.2439C154.53 57.62 154.716 57.308 154.592 57.308C153.971 57.308 153.164 57.7448 152.171 58.6183C151.178 59.4918 150.247 60.5525 149.316 61.7379C148.385 62.9234 147.578 64.0464 146.895 65.2319C146.213 66.355 145.84 67.1661 145.84 67.6652C145.84 67.7276 146.337 67.1037 147.268 65.731C147.702 64.9823 148.261 64.1712 149.068 63.2977C149.999 62.4242 150.868 61.4883 151.923 60.4901ZM147.454 63.6721C147.889 63.1106 148.199 62.6114 148.447 62.2371C148.695 61.8627 148.757 61.6755 148.695 61.7379C148.509 61.8003 148.137 62.3618 147.454 63.2977C146.833 64.296 146.337 64.9823 146.151 65.4815C146.089 65.5439 146.027 65.6063 146.027 65.6687C146.027 65.7311 145.965 65.7934 145.902 65.8558V65.9806C146.089 65.7934 146.213 65.6063 146.399 65.3567C146.585 65.1695 146.709 64.9823 146.895 64.6704C147.02 64.4208 147.206 64.0464 147.454 63.6721ZM151.799 66.7293C152.233 66.1054 152.606 65.4815 153.04 64.9199C153.475 64.3584 153.723 63.9217 153.909 63.6721L154.53 62.6738L153.661 63.5473C153.412 63.7969 153.04 64.2336 152.544 64.8576C152.047 65.4815 151.55 66.1678 151.116 66.8541C150.682 67.5404 150.185 68.2892 149.813 69.0379C149.378 69.7866 149.068 70.3481 148.82 70.8472C148.261 72.1575 148.013 72.7814 148.075 72.7814C148.261 72.7814 148.571 72.2823 149.192 71.2216C149.626 70.5977 150.061 69.849 150.495 68.9755C150.93 68.102 151.426 67.3533 151.799 66.7293ZM152.916 72.9062C153.661 71.3464 154.53 69.7866 155.585 68.102C156.64 66.4174 157.633 65.1695 158.502 64.2336C159.309 63.3601 159.619 62.9234 159.495 62.9234C159.309 62.9234 158.75 63.4225 157.695 64.4832C156.392 65.8558 155.337 67.2909 154.468 68.6635C153.599 70.0985 152.73 72.0951 151.737 74.7156C151.55 75.1523 151.426 75.5267 151.302 75.9011C151.178 76.2754 151.054 76.5874 150.868 76.9617C150.682 77.2113 150.557 77.4609 150.495 77.7104C150.557 77.7104 150.806 77.3985 151.116 76.7122C151.302 76.4002 151.55 75.8387 151.861 75.1524C152.171 74.4036 152.544 73.6549 152.916 72.9062ZM151.24 88.3796C151.24 88.0052 151.302 87.4437 151.364 86.7574C151.426 86.0711 151.55 85.4471 151.613 85.0104C151.675 84.4488 151.799 83.8873 151.861 83.3258C151.923 82.7642 151.985 82.2651 151.985 81.8908C152.047 80.0814 152.854 77.7728 154.281 74.9652C154.84 73.8421 155.337 72.9686 155.647 72.4695C156.019 71.9703 156.205 71.7831 156.205 71.9079C156.205 72.1575 155.957 72.719 155.461 73.5925C154.592 75.4019 153.785 77.5857 153.04 80.2061C152.295 82.8266 151.861 85.0728 151.737 86.9446C151.55 88.1924 151.426 89.0035 151.24 89.3779C151.178 89.565 151.116 89.5027 151.116 89.3155C151.116 89.1283 151.116 88.8163 151.24 88.3796ZM152.792 63.6721C153.35 62.9234 153.599 62.549 153.537 62.549C153.475 62.6114 153.35 62.7362 153.288 62.9234C153.04 62.9858 152.792 63.2353 152.544 63.6721L151.923 64.6704C151.985 64.608 152.109 64.4832 152.171 64.4208C152.544 64.0465 152.73 63.7969 152.792 63.6721ZM169.798 89.3779C170.046 89.0659 169.984 89.0035 169.674 89.2531C169.426 89.3155 169.301 89.5027 169.301 89.7522C169.301 89.8146 169.426 89.6898 169.798 89.3779Z" fill="#F9EFDE"/>
<path d="M196.673 106.037C196.176 105.974 195.618 105.85 194.935 105.787C194.252 105.725 193.631 105.662 193.073 105.662C190.59 105.475 188.356 104.477 186.432 102.668C184.508 100.858 183.142 98.7368 182.335 96.3659C181.094 93.1838 180.66 89.5027 180.97 85.1976C181.28 80.9549 182.335 76.4626 184.197 71.8455C184.508 70.972 185.128 69.5994 185.997 67.79C186.866 65.9806 187.921 64.1088 189.039 62.2371C190.156 60.3653 191.335 58.7431 192.638 57.3704C193.88 55.9978 195.059 55.3115 196.238 55.3115C196.3 55.4987 196.114 55.873 195.618 56.5593C195.121 57.1833 194.438 57.9944 193.569 58.9926C192.825 59.8037 192.08 60.8644 191.335 62.1747C190.59 63.4849 189.845 64.8576 189.101 66.2926C188.356 67.7276 187.735 69.225 187.177 70.5977C186.618 72.0327 186.246 73.2806 186.059 74.3412C185.873 75.09 186.183 74.5908 186.928 72.9062C187.549 71.5336 188.418 69.849 189.411 67.9148C190.404 65.9806 191.273 64.3584 192.018 63.0482C192.452 62.4242 192.949 61.6755 193.569 60.9268C194.19 60.1781 194.873 59.4294 195.431 58.7431C196.052 58.0567 196.611 57.4328 197.107 56.9961C197.604 56.4969 197.914 56.3098 198.038 56.3721C198.411 56.4345 198.411 56.8713 197.914 57.6824C197.728 57.932 197.48 58.3063 197.169 58.9302C196.859 59.4918 196.487 60.1157 196.114 60.7396C195.742 61.3636 195.431 61.9875 195.121 62.4242C194.811 62.9234 194.687 63.173 194.687 63.2977C194.687 63.3601 194.749 63.4225 194.935 63.4225C195.121 63.4225 195.369 63.1729 195.68 62.6114C195.99 62.1123 196.362 61.426 196.797 60.7396C197.604 59.367 198.162 58.4311 198.411 57.932C198.721 57.4328 198.907 57.1833 199.093 57.1833C199.155 57.1833 199.279 57.2456 199.466 57.4328C199.714 57.62 199.838 58.0567 199.838 58.7431L199.714 59.8661L200.707 58.6183V59.2422C200.707 59.4294 200.645 59.7414 200.521 60.3029C200.397 60.802 200.273 61.3636 200.086 61.8003C199.652 63.0482 199.59 63.6097 199.714 63.6097C200.024 63.6097 200.21 63.5473 200.21 63.3601C200.397 63.0482 200.459 63.0482 200.459 63.4849C200.459 63.7969 200.893 63.9841 201.762 64.1088C204.369 64.4208 206.976 65.3567 209.645 66.8541C212.313 68.3515 214.237 70.2857 215.479 72.6566C215.913 73.4677 216.224 74.5908 216.534 76.0258C216.844 77.4609 216.968 78.7087 216.968 79.7694C216.906 82.3899 216.162 85.4471 214.796 88.9411C213.431 92.4975 211.569 95.8667 209.21 99.1111C209.024 99.4231 208.9 99.6103 208.838 99.7351C208.776 99.7351 208.714 99.7974 208.714 99.8598C208.9 99.8598 209.21 99.4855 209.831 98.7368C210.389 97.9881 211.01 97.177 211.569 96.3035C212.189 95.43 212.748 94.5565 213.306 93.7454C213.865 92.9342 214.175 92.4351 214.3 92.1855C214.486 91.8736 214.672 91.312 215.044 90.5009C215.355 89.6898 215.665 88.8787 216.037 88.0676C216.658 86.2582 217.03 85.3847 217.155 85.3847C217.217 85.3847 217.092 86.0711 216.658 87.4437C216.224 88.7539 215.665 90.1266 214.982 91.624C214.237 93.1214 213.431 94.6189 212.5 96.0539C211.569 97.4889 210.576 98.9239 209.458 100.172C208.341 101.482 207.286 102.48 206.107 103.229C205.672 103.541 205.548 103.603 205.61 103.354C205.859 102.917 205.114 103.354 203.438 104.602C202.01 105.662 200.21 106.161 198.1 106.161C197.914 106.161 197.728 106.161 197.542 106.099C197.169 106.099 196.921 106.037 196.673 106.037ZM193.011 67.6652C193.011 67.3533 193.073 67.1037 193.259 66.9165C193.507 66.6669 193.694 66.4798 193.756 66.2926C194.004 65.9806 193.942 65.7934 193.631 65.7934C193.197 65.7934 192.514 67.2285 191.459 70.1609C190.963 71.5336 190.776 72.2199 190.838 72.2199C190.901 72.2199 191.273 71.6584 191.832 70.5353C192.142 69.9114 192.452 69.2874 192.7 68.7259C192.949 68.2267 193.011 67.8524 193.011 67.6652ZM195.928 97.4265C196.3 97.177 196.859 96.8026 197.542 96.1787C198.224 95.6171 198.907 94.9308 199.59 94.1821C200.273 93.4334 200.955 92.6223 201.576 91.8112C202.197 91.0001 202.693 90.3138 203.003 89.7522C205.486 85.1352 206.727 80.5805 206.665 76.0882C206.603 73.7173 206.169 72.0327 205.424 70.9096C204.679 69.7866 203.376 69.0379 201.514 68.5387C200.521 68.2891 199.9 68.1644 199.59 68.1644C199.031 68.1644 198.349 69.1626 197.666 71.1592C196.921 73.1558 196.3 75.4643 195.68 78.0224C195.059 80.6429 194.562 83.1386 194.19 85.5719C193.756 88.0052 193.569 89.6898 193.569 90.5633C193.507 90.5633 193.445 90.0018 193.507 88.9411C193.569 87.818 193.631 85.9463 193.818 83.2634C193.88 82.2651 194.19 80.8301 194.687 78.8959C195.183 76.9617 195.804 74.778 196.611 72.3447C196.983 71.2216 197.355 70.2233 197.604 69.4122C197.852 68.6011 197.914 68.1644 197.852 68.1644C197.604 68.2268 197.293 68.8507 196.859 70.0361C196.424 71.2216 195.99 72.5943 195.555 74.2165C195.059 75.8387 194.625 77.5233 194.252 79.2079C193.818 80.8925 193.569 82.3899 193.383 83.5754C193.135 85.1976 193.011 87.1941 193.011 89.6274C193.011 91.9984 193.073 93.7454 193.259 94.806C193.445 95.6172 193.631 96.3035 193.942 96.9274C194.252 97.5513 194.438 97.8633 194.624 97.8633C194.687 97.8633 195.121 97.7385 195.928 97.4265ZM193.507 93.371C193.507 93.059 193.569 92.9966 193.756 93.1214C193.756 93.4334 193.694 93.6206 193.631 93.6206C193.631 93.683 193.631 93.7454 193.569 93.683C193.569 93.6206 193.507 93.5582 193.507 93.371ZM203.562 94.4941C204.99 92.8719 206.045 91.2497 206.603 89.6274C206.852 88.8163 207.162 87.7557 207.534 86.383C207.907 85.0104 208.093 84.2617 208.093 84.0121C208.093 83.9497 207.907 84.1993 207.596 84.8856C207.286 85.5095 206.852 86.3206 206.355 87.3189C205.486 89.3779 204.741 90.8753 204.121 91.936C203.5 92.9966 202.817 94.0573 202.01 95.118C201.762 95.5548 201.514 95.8667 201.328 96.1163C201.141 96.3658 201.017 96.553 201.017 96.6154C201.017 96.8026 201.328 96.6154 201.886 96.1163C202.445 95.5547 203.003 95.0556 203.562 94.4941ZM209.893 90.0018C210.203 89.4403 210.513 88.6916 210.886 87.8181C211.196 86.9446 211.444 86.1335 211.631 85.3847C212.127 83.7001 212.251 82.8266 212.127 82.8266L212.003 83.0762L211.755 84.0745C211.569 84.5112 211.382 85.0104 211.072 85.6343C210.762 86.2582 210.513 86.9446 210.265 87.5685C209.52 89.0035 209.272 89.7522 209.396 89.7522C209.458 89.6898 209.52 89.7522 209.52 90.0018C209.334 90.2514 209.21 90.3138 209.148 90.2514C208.9 90.189 208.838 90.2514 209.024 90.5009C209.086 90.8129 209.086 90.9377 208.9 90.8753C208.714 90.6881 208.527 90.8129 208.279 91.2496C208.217 91.5616 208.217 91.6864 208.279 91.624C208.714 91.3744 208.714 91.624 208.279 92.3727C208.093 92.6847 208.155 92.8095 208.403 92.6223C208.651 92.3103 209.148 91.4368 209.893 90.0018ZM211.01 94.2445C211.631 93.371 212.251 92.2479 212.81 90.9377C213.369 89.6274 213.741 88.5668 213.927 87.7557V87.2565L213.431 88.2548C212.996 89.3779 212.5 90.5633 211.879 91.8736C211.258 93.1214 210.638 94.1821 210.079 94.9932C209.769 95.4924 209.582 95.8043 209.458 95.9915C209.396 96.0539 209.334 96.1787 209.334 96.2411C209.334 96.1787 209.955 95.5547 211.01 94.2445ZM216.906 84.1369C216.906 83.9497 216.906 83.8249 216.968 83.7001C217.03 83.5753 217.03 83.5753 217.03 83.7625C217.279 83.9497 217.279 84.1369 217.03 84.3865C217.03 84.5736 217.03 84.5736 216.968 84.5113C216.968 84.3865 216.906 84.2617 216.906 84.1369Z" fill="#F9EFDE"/>
<path d="M283.938 103.978C283.069 103.416 282.076 102.543 281.021 101.42C279.966 100.297 278.973 99.0487 277.98 97.6761C276.987 96.3034 276.118 94.9932 275.373 93.683C274.628 92.3727 274.069 91.1873 273.759 90.189C273.511 89.565 273.2 88.3796 272.766 86.7574C272.332 85.1352 272.083 83.6378 271.897 82.2651L271.773 80.8301L268.732 85.6967C267.304 88.13 266.063 90.0642 265.008 91.4992C264.015 92.9343 263.394 93.6206 263.146 93.6206C263.084 93.6206 262.649 93.8702 261.842 94.3693C261.284 94.806 260.911 94.9932 260.725 94.9932C260.539 94.9932 260.415 94.9308 260.353 94.8684C260.291 94.806 260.042 94.7436 259.732 94.7436C259.422 94.7436 258.987 94.6813 258.491 94.4941C258.429 94.2445 258.242 94.1197 257.994 94.1197C257.932 94.1197 257.622 94.2445 257.125 94.4941C256.505 94.9308 256.008 95.118 255.698 95.118C255.139 95.118 254.581 94.806 254.022 94.2445C253.712 93.9949 253.401 93.7454 253.091 93.4334C252.781 93.1214 252.594 92.9343 252.408 92.7471C251.788 92.1855 251.353 91.312 251.105 90.0642C250.919 88.8163 250.795 86.7574 250.795 83.7001C250.795 81.0172 250.857 78.7087 250.919 76.7746C250.981 74.8404 251.105 73.6549 251.291 73.2182C251.353 73.1558 251.415 73.031 251.415 72.8438V72.719C251.353 72.719 250.67 73.5925 249.367 75.4019C246.14 79.8942 242.85 86.0087 239.436 93.8078C238.133 96.6778 237.202 98.612 236.519 99.7975C235.899 100.921 235.278 101.482 234.844 101.482C234.595 101.482 234.347 101.357 234.099 101.108C233.85 100.858 233.602 100.733 233.23 100.733C232.982 100.733 232.795 100.671 232.609 100.484C232.547 100.234 232.423 100.172 232.237 100.359C232.05 100.546 231.678 100.796 230.995 101.17C230.375 101.544 229.878 101.732 229.692 101.732C229.506 101.732 229.258 101.669 229.071 101.607C228.885 101.42 228.699 101.232 228.451 101.045C228.202 100.858 228.016 100.671 227.83 100.484C227.582 99.9222 227.271 99.6103 226.837 99.6103C226.527 99.6103 226.216 99.1735 225.844 98.3624C225.596 97.8009 225.409 97.2393 225.347 96.8026C225.285 96.3658 225.285 95.2428 225.471 93.6206C225.534 91.5616 225.844 88.9411 226.402 85.6343C226.899 82.3275 227.582 79.0207 228.327 75.5891C229.071 72.1575 229.878 69.0379 230.747 66.1054C231.616 63.173 232.361 61.0516 232.982 59.6166C233.292 59.055 233.726 58.5559 234.223 58.1815C234.719 57.7448 235.092 57.5576 235.464 57.5576C235.712 57.5576 235.774 58.0568 235.712 59.1174C235.526 60.1781 235.526 60.6772 235.712 60.6772C235.899 60.6772 236.209 60.3029 236.705 59.4294C237.14 58.8055 237.388 58.4311 237.574 58.4311C237.761 58.4311 237.885 58.4935 237.947 58.5559C238.257 58.7431 238.443 58.9926 238.443 59.3046C238.443 59.7413 238.63 59.8037 238.94 59.5542H239.312C239.498 59.5542 239.747 59.8037 240.181 60.2405C240.616 60.6772 240.802 60.9892 240.802 61.1764C240.802 61.3636 240.926 61.3636 241.174 61.3012C241.236 61.2388 241.36 61.426 241.547 61.9251C241.609 62.1747 241.671 62.6738 241.671 63.4225C241.671 64.1712 241.609 65.0447 241.547 65.9806C241.485 66.9165 241.36 67.8524 241.298 68.8507C241.236 69.849 241.112 70.6601 240.926 71.4088C240.74 72.0327 240.616 72.6566 240.554 73.0934C240.492 73.5925 240.429 73.8421 240.429 73.9669C240.616 74.1541 240.802 73.7797 241.05 72.9062C241.298 72.0327 241.423 71.284 241.547 70.6601C241.609 70.2233 241.671 69.849 241.733 69.4746C241.795 69.1003 241.857 68.8507 241.919 68.6635C241.981 68.4763 242.043 68.4763 242.105 68.5387C242.167 68.6011 242.105 68.7883 242.043 69.0379C241.795 70.9096 241.733 71.8455 241.919 71.8455C242.105 71.8455 242.664 71.0968 243.719 69.537C244.091 69.0379 244.774 68.1644 245.705 66.9165C246.636 65.6687 247.629 64.4208 248.746 63.1106C249.864 61.8627 250.919 60.7396 252.098 59.7414C253.215 58.7431 254.146 58.3063 254.891 58.3063C255.387 58.3063 255.636 58.5559 255.76 59.055C255.822 59.3046 256.132 59.4294 256.753 59.4294H257.249C257.622 59.4294 257.994 59.5542 258.367 59.8037C258.925 60.2405 259.298 60.4277 259.484 60.4277C259.67 60.4277 260.105 60.802 260.787 61.6131C261.532 62.3618 262.029 62.9858 262.215 63.3601C262.463 63.9217 262.525 65.0447 262.463 66.7293C262.401 68.4139 262.029 71.0968 261.47 74.8404C261.222 76.4002 261.035 77.7728 260.849 79.0207C260.663 80.2685 260.601 81.0173 260.601 81.2668C260.601 81.454 260.601 81.5164 260.539 81.5788C260.477 81.6412 260.477 81.7036 260.477 81.766C260.477 81.8284 260.477 81.9532 260.477 82.0155C260.539 82.0155 260.663 81.8908 260.725 81.6412C260.911 81.454 261.036 81.0173 261.16 80.3309C261.284 79.6446 261.408 78.7711 261.594 77.7728C261.78 76.8993 261.904 75.7139 262.029 74.3412C262.153 72.9686 262.277 71.7831 262.463 70.7849C262.649 69.9114 262.773 69.1626 262.835 68.6635C262.897 68.1644 263.022 68.0396 263.084 68.3515C263.084 68.6635 263.022 69.4122 262.835 70.5977C262.649 71.7831 262.525 73.031 262.339 74.466C262.153 75.8387 262.029 77.0865 261.904 78.1472C261.78 79.2079 261.718 79.8318 261.718 79.9566C261.718 80.019 262.153 79.395 263.022 78.0224C263.891 76.6498 264.946 75.0276 266.063 73.1558C267.18 71.284 268.359 69.3498 269.539 67.4156C270.718 65.4815 271.587 63.9217 272.145 62.7986C272.766 61.426 273.511 60.3029 274.256 59.4918C275 58.6807 275.621 58.2439 275.993 58.2439C276.614 58.2439 276.862 58.9926 276.614 60.4277L276.366 61.6755L277.483 60.4277C278.104 59.8037 278.6 59.4294 278.786 59.4294H279.035C279.469 59.6166 279.717 59.8661 279.904 60.3029C279.966 60.6149 280.214 60.802 280.648 60.802C280.959 60.6149 281.207 60.6149 281.393 60.802C281.642 60.9892 281.952 61.3636 282.448 62.0499C282.883 62.6738 283.131 63.1106 283.131 63.2977C283.131 63.5473 283.193 63.6097 283.379 63.4225C283.566 63.4225 283.69 63.4849 283.752 63.6721C283.752 63.7345 283.752 64.7952 283.814 66.7917C283.876 68.7883 283.876 71.0968 283.876 73.7797C283.938 78.8335 284.062 82.7642 284.248 85.5095C284.434 88.3172 284.683 90.501 285.117 91.9984C285.365 92.9967 285.676 93.9949 286.172 94.9932C286.607 95.9915 287.041 96.9898 287.476 97.8633C287.91 98.7368 288.345 99.4855 288.779 100.047C289.214 100.609 289.586 100.921 289.834 100.921C290.331 100.921 290.641 101.357 290.827 102.231C290.827 102.73 291.014 102.855 291.324 102.73C291.758 102.73 291.82 102.917 291.572 103.229C291.324 103.728 291.076 103.978 290.827 103.978C290.765 103.978 290.765 103.853 290.827 103.603C291.014 103.167 290.951 102.979 290.703 102.979C290.517 102.979 290.393 103.167 290.207 103.479C290.02 103.791 289.524 103.978 288.655 103.978C287.786 103.978 286.917 104.04 286.11 104.227H285.49C284.931 104.352 284.434 104.227 283.938 103.978ZM228.451 90.189C228.389 89.9394 228.327 90.0018 228.327 90.4386C228.327 90.9377 228.389 91.0625 228.451 90.9377V90.189ZM230.499 79.1455C230.499 78.7711 230.375 78.9583 230.189 79.8942C230.002 80.7677 229.692 82.2027 229.258 84.1369C229.009 85.26 228.823 86.3206 228.699 87.1941C228.575 88.0676 228.513 88.6292 228.513 88.7539C228.513 88.9411 228.637 88.5668 228.823 87.6309C229.009 86.7574 229.258 85.6967 229.506 84.4489C229.754 83.201 229.94 82.0779 230.189 80.9549C230.375 79.8942 230.499 79.2703 230.499 79.1455ZM232.299 89.0035C232.237 88.8163 232.175 88.8787 232.175 89.1283C232.175 89.4403 232.237 89.5651 232.299 89.5027C232.423 89.3779 232.423 89.2531 232.299 89.0035ZM234.347 79.6446C234.285 79.4574 234.223 79.5198 234.223 79.7694C234.223 80.0814 234.285 80.2062 234.347 80.1438C234.533 79.9566 234.533 79.7694 234.347 79.6446ZM236.209 86.695C236.147 86.5078 236.085 86.5702 236.085 86.8198C236.085 87.1317 236.147 87.2565 236.209 87.1941C236.333 87.007 236.333 86.8198 236.209 86.695ZM236.83 91.0625C236.643 90.8753 236.643 90.8753 236.705 91.0625C236.892 91.2497 236.768 91.5616 236.457 92.1855C236.209 92.6847 236.085 92.9967 236.085 93.1838C236.085 93.371 236.271 93.1214 236.581 92.4351C236.954 91.7488 237.016 91.3121 236.83 91.0625ZM236.457 85.5719C236.457 85.3847 236.457 85.3224 236.395 85.3847C236.333 85.4471 236.333 85.5095 236.333 85.6967C236.333 86.0087 236.395 86.1335 236.457 86.0711C236.581 86.0711 236.581 85.8839 236.457 85.5719ZM241.671 87.8805C243.285 84.4489 244.712 81.766 245.891 79.707C247.133 77.6481 248.436 75.6515 249.864 73.5925C251.291 71.7207 251.912 70.7849 251.663 70.7849L251.539 70.9096C251.477 70.9096 251.353 70.972 251.291 71.0344C251.105 71.2216 250.795 71.596 250.298 72.2823C249.801 72.9062 249.305 73.5925 248.746 74.3412C247.629 76.1506 246.884 77.0241 246.574 77.0241C246.512 77.0241 246.45 77.0865 246.45 77.2737C246.636 77.4609 246.512 77.8352 246.077 78.4592C245.643 79.0831 245.395 79.3326 245.209 79.2703C245.147 79.2079 245.147 79.2079 245.209 79.3951C245.395 79.5822 245.271 79.8942 244.96 80.4557C244.65 80.9549 244.402 81.2044 244.216 81.142C244.029 81.0796 244.029 81.0796 244.091 81.2668C244.278 81.454 244.153 81.8908 243.781 82.5771C243.409 83.2634 243.16 83.5754 242.974 83.4506C242.788 83.4506 242.788 83.5754 242.85 83.8249C243.036 84.0745 242.974 84.1369 242.726 84.0745C242.54 84.0121 242.54 84.0745 242.602 84.3241C242.664 84.5112 242.726 84.5736 242.664 84.636C242.602 84.6984 242.54 84.636 242.478 84.5736C242.229 84.5112 242.167 84.5736 242.354 84.8232C242.54 85.1352 242.478 85.26 242.229 85.0728C241.919 84.8856 241.795 85.0104 241.981 85.4471C242.167 85.6967 242.105 85.7591 241.857 85.6967C241.671 85.4471 241.671 85.5095 241.733 85.9463C241.795 86.1958 241.795 86.2582 241.609 86.1958C241.423 86.1334 241.423 86.1334 241.485 86.1958C241.547 86.383 241.485 86.695 241.298 87.1941C241.112 87.6933 240.926 87.8181 240.74 87.6933C240.678 87.6933 240.678 87.8181 240.74 88.0676C240.802 88.2548 240.864 88.3172 240.802 88.3796C240.74 88.442 240.678 88.3796 240.616 88.3172C240.367 88.2548 240.305 88.3172 240.492 88.5668C240.554 88.8787 240.492 89.0035 240.243 88.8163C239.995 88.5668 239.933 88.6916 240.119 89.1907C240.305 89.4403 240.243 89.5027 239.995 89.4403C239.747 89.1907 239.685 89.2531 239.871 89.565C239.933 89.7522 239.809 90.189 239.436 91.0001C239.064 91.8112 238.63 92.8095 238.133 93.9325C237.512 95.2428 237.016 96.3035 236.705 97.1146C236.395 97.9257 236.271 98.3624 236.333 98.3624C236.395 98.3624 236.768 97.7385 237.326 96.553C237.574 96.0539 238.071 94.9932 238.878 93.3086C239.933 91.4368 240.74 89.6898 241.671 87.8805ZM237.761 98.9863C238.009 98.5496 238.381 97.8633 238.878 96.9274C239.374 95.9915 239.809 94.9932 240.181 93.9949C240.802 92.5599 241.547 90.9377 242.354 89.1907C243.16 87.4437 243.967 85.8215 244.712 84.3241C245.457 82.8266 246.14 81.5788 246.76 80.5805C247.381 79.5822 247.691 79.1455 247.815 79.1455C247.877 79.1455 247.691 79.5822 247.195 80.4557C246.884 81.0173 246.388 81.8907 245.829 83.0762C245.209 84.2617 244.588 85.5095 243.905 86.8822C243.222 88.1924 242.602 89.565 241.981 90.8129C241.36 92.1231 240.926 93.1214 240.616 93.8702C239.002 97.6137 237.947 99.6727 237.45 100.109C237.264 100.297 237.264 100.234 237.326 99.9846C237.388 99.7351 237.512 99.4231 237.761 98.9863ZM244.216 77.8976C244.836 76.7746 245.891 75.2147 247.319 73.2182C248.746 71.2216 250.236 69.1626 251.726 67.0413L251.974 66.7917C251.912 66.7917 251.539 67.1661 250.857 67.9148C250.236 68.5387 249.429 69.4746 248.56 70.5977C247.691 71.7207 246.822 72.8438 246.015 73.9045C245.209 74.9652 244.588 75.8387 244.153 76.5874C243.719 77.3361 243.595 77.5857 243.843 77.4609C244.029 77.3985 244.029 77.3985 243.967 77.5233C243.905 77.6481 243.719 77.7728 243.471 77.96C242.602 78.8335 242.478 79.1455 243.098 78.8335C243.409 78.6463 243.347 78.7711 242.85 79.0831C242.416 79.3951 242.167 79.7694 241.919 80.2685C241.733 80.7053 241.733 80.8301 241.981 80.7053C242.167 80.6429 242.229 80.5805 242.167 80.6429C242.105 80.7053 242.043 80.7677 241.857 80.8301L241.609 81.454C241.671 81.5164 241.671 81.5788 241.485 81.5788C241.423 81.5788 241.236 81.8284 240.926 82.3275C240.616 82.8267 240.367 83.3258 240.057 83.8873C239.747 84.4489 239.374 85.26 238.878 86.3206C239.064 86.5078 238.94 86.8198 238.63 87.4437L238.257 88.5668C238.443 88.5668 239.126 87.3189 240.305 84.8856C240.864 83.7625 241.547 82.5147 242.229 81.2044C243.098 79.7694 243.719 78.7087 244.216 77.8976ZM239.436 79.9566L239.561 78.9583L239.312 79.707C239.064 80.2062 238.878 80.7677 238.692 81.3916C238.63 81.8908 238.63 82.1403 238.692 82.1403L238.816 82.0155C238.816 81.9532 238.816 81.8907 238.878 81.8284C238.94 81.766 238.94 81.7036 238.94 81.6412C239.312 81.2044 239.436 80.6429 239.436 79.9566ZM243.471 74.7156C244.712 72.9062 246.015 71.0968 247.505 69.225C248.995 67.3533 250.298 65.7934 251.415 64.4832C252.284 63.6097 252.843 62.9858 252.967 62.7362C253.153 62.4242 253.091 62.2371 252.843 62.0499C252.781 61.9875 252.47 62.1747 252.036 62.6114C251.601 63.0482 251.043 63.6097 250.36 64.296C249.677 64.9823 248.995 65.7311 248.25 66.6046C247.505 67.4781 246.822 68.2892 246.202 69.1003C244.278 71.5336 242.85 73.4677 241.981 74.9652C241.112 76.4002 240.678 77.5857 240.678 78.5215C240.678 78.7087 240.74 78.7711 240.802 78.7711L240.926 78.6463C240.926 78.5839 240.988 78.4592 241.174 78.272C241.236 78.0224 241.547 77.5857 241.981 76.8993C242.416 76.213 242.912 75.4643 243.471 74.7156ZM248.684 77.7728C248.933 77.3985 249.367 76.7122 249.988 75.7763C250.608 74.8404 250.981 74.4036 251.105 74.466C251.105 74.5284 250.732 75.0899 249.988 76.1506C249.181 77.3985 248.684 77.96 248.56 77.96L248.684 77.7728ZM260.787 86.1958C260.787 85.8839 260.725 85.6967 260.663 85.6967C260.477 85.6967 260.353 86.1335 260.167 86.9446C260.167 87.1317 260.167 87.1941 260.104 87.2565C260.042 87.3189 260.042 87.3813 260.042 87.4437C260.042 87.5061 260.042 87.6309 260.042 87.6933L260.291 87.4437C260.663 86.9446 260.787 86.5078 260.787 86.1958ZM267.615 75.4643C268.98 73.2806 270.097 71.3464 271.028 69.7242C271.897 68.102 272.394 67.1037 272.456 66.7917C272.642 65.9806 272.642 65.5439 272.58 65.5439C270.408 69.0379 268.67 71.9079 267.304 74.0917C266.001 76.2754 264.697 78.3344 263.518 80.3309C262.339 82.2651 261.656 83.4506 261.532 83.7625C261.346 84.1993 261.222 84.5736 261.16 85.0104C261.098 85.4471 261.035 85.8215 261.035 86.2582C261.098 86.2582 261.284 86.1335 261.47 85.8215C261.656 85.5095 262.029 85.0104 262.525 84.2617C263.022 83.513 263.642 82.3899 264.449 80.9549C265.256 79.4574 266.311 77.6481 267.615 75.4643ZM262.153 88.2548C262.897 87.1941 263.394 86.6326 263.58 86.5702C263.518 86.383 263.58 86.1958 263.828 85.9463C264.015 85.7591 264.511 85.0728 265.318 83.7625C266.187 82.4523 267.056 81.0796 267.987 79.5822C268.918 78.0848 269.787 76.7122 270.532 75.4643C271.276 74.2165 271.711 73.5301 271.711 73.4677C271.711 73.2806 271.649 73.2182 271.463 73.2182C271.214 73.2182 271.028 73.2806 270.966 73.4677C270.904 73.6549 270.904 73.6549 271.09 73.5925C271.276 73.5301 271.338 73.4677 271.276 73.5301C271.214 73.5925 271.152 73.6549 270.966 73.8421C270.656 74.1541 270.532 74.466 270.594 74.7156C270.594 75.0276 270.47 75.09 270.221 74.8404C270.159 74.778 270.097 74.7156 270.035 74.778C269.973 74.8404 270.035 74.9028 270.097 74.9652C270.159 74.9652 270.221 75.0276 270.159 75.1524C270.097 75.2771 270.035 75.4019 269.849 75.4643C269.539 75.7763 269.539 75.9011 269.849 75.7139C269.911 75.6515 269.911 75.6515 269.849 75.7763C269.787 75.9011 269.663 76.0258 269.477 76.213C268.856 76.8369 268.608 77.2113 268.856 77.2113C268.918 77.1489 269.042 77.0865 269.104 77.0865L268.732 77.4609C268.546 77.6481 268.421 77.7728 268.359 77.8352C268.297 77.8976 268.297 77.8976 268.483 77.8352C268.67 77.7728 268.546 77.8976 268.111 78.3344C267.49 78.9583 267.242 79.3327 267.49 79.3327C267.552 79.2703 267.677 79.2079 267.739 79.2079C267.801 79.1455 267.863 79.0831 267.801 79.1455C267.739 79.2079 267.677 79.2703 267.49 79.4574C267.18 79.7694 267.056 80.0814 267.118 80.3309C267.118 80.5805 267.056 80.6429 266.87 80.4557C266.684 80.4557 266.684 80.5181 266.746 80.5805C266.746 80.8301 266.684 81.0173 266.497 81.0797C266.187 81.0797 266.063 81.2668 266.249 81.5788C266.311 81.8908 266.311 82.0155 266.125 81.9531C265.939 81.766 265.753 81.8284 265.566 82.1403C265.38 82.4523 265.318 82.7019 265.504 82.9514C265.504 83.201 265.442 83.3258 265.256 83.3258C264.822 83.1386 264.759 83.2634 265.008 83.7001C265.008 83.9497 264.946 84.0745 264.759 84.0745C264.573 83.8249 264.573 83.8873 264.635 84.3241C264.822 84.5736 264.759 84.636 264.511 84.5736C264.325 84.3865 264.139 84.5113 263.953 84.8232C263.766 85.1352 263.704 85.3847 263.891 85.5719C263.58 85.7591 263.146 86.3206 262.587 87.2565C262.339 87.6933 262.091 88.0676 261.842 88.5044C261.594 88.9411 261.408 89.2531 261.222 89.4403C261.035 89.6274 260.973 89.7522 260.973 89.9394C260.911 90.0018 260.849 90.1266 260.849 90.189C261.222 89.877 261.594 89.3155 262.153 88.2548ZM263.208 91.1873C263.704 90.5633 264.449 89.5027 265.38 88.0676C266.373 86.6326 267.304 85.1976 268.235 83.7001C269.166 82.2027 269.973 80.8301 270.594 79.707C271.214 78.5216 271.587 77.8976 271.587 77.8352C271.587 77.7728 271.338 78.0224 270.904 78.7087C270.47 79.3327 269.911 80.2061 269.29 81.2668C267.987 83.3882 266.684 85.4471 265.38 87.5061C264.077 89.565 263.146 90.8129 262.649 91.3744C262.215 91.936 262.153 92.2479 262.277 92.2479C262.525 92.1855 262.835 91.8736 263.208 91.1873ZM266.001 89.6274C267.428 87.3813 268.794 85.26 269.911 83.2634C271.09 81.3292 271.649 80.2062 271.525 79.9566C271.525 79.7694 271.276 80.0814 270.78 80.7677C270.283 81.454 269.725 82.3899 269.104 83.513C268.483 84.5736 267.739 85.7591 266.932 87.0693C266.125 88.3796 265.442 89.4403 264.884 90.3762C264.387 91.1249 264.015 91.8112 263.642 92.4351C263.394 92.7471 263.208 93.059 263.022 93.4334C263.022 93.6206 263.27 93.3086 263.828 92.6223C264.387 91.8736 265.132 90.9377 266.001 89.6274ZM283.317 65.4815C283.317 64.9199 283.255 64.7328 283.069 64.8576C282.883 64.9199 282.821 65.2319 282.883 65.6687C282.945 66.1054 283.007 66.355 283.193 66.355C283.317 66.355 283.317 66.043 283.317 65.4815ZM284.807 87.7557C284.745 87.4437 284.621 86.8198 284.497 85.8839C284.372 84.948 284.31 83.8249 284.248 82.5147C284.186 81.2044 284.186 79.8318 284.186 78.3344C284.186 76.8369 284.248 75.4019 284.31 74.0293L284.559 68.2891V75.8387C284.621 77.96 284.683 79.9566 284.745 81.9531C284.807 83.8873 284.869 85.1976 284.931 85.8839L285.055 88.1924L284.931 88.0676C284.931 87.9428 284.869 87.8804 284.807 87.7557ZM284.931 88.8787C284.931 88.6916 284.931 88.6292 284.993 88.5668C285.055 88.5044 285.055 88.5668 285.055 88.7539C285.241 88.9411 285.241 89.0659 285.055 89.2531C284.993 89.3155 284.931 89.1907 284.931 88.8787Z" fill="#F9EFDE"/>
<path d="M312.923 99.9846C310.068 99.7351 307.958 99.2983 306.468 98.6744C305.04 98.0505 303.427 96.865 301.751 95.118C299.889 93.059 298.524 91.3121 297.717 89.7522C296.848 88.1924 296.227 86.1958 295.855 83.6377C294.489 76.1506 296.041 69.1003 300.572 62.4242C304.544 56.4969 309.013 53.0029 314.04 51.9423C314.413 51.8799 314.847 51.8175 315.219 51.7551C315.592 51.6927 315.964 51.6927 316.399 51.6927C317.454 51.6927 318.571 51.9423 319.812 52.379C321.054 52.8158 322.171 53.4397 323.35 54.126C324.467 54.8747 325.46 55.6858 326.391 56.5593C327.26 57.4328 327.943 58.3687 328.44 59.367C328.75 59.9909 328.936 60.4901 328.998 60.7396C329.06 61.0516 328.998 61.6131 328.812 62.4866C328.502 63.9217 327.757 65.5439 326.702 67.2909C325.584 69.0379 324.281 70.5977 322.792 71.9703C321.736 72.8438 321.302 73.4054 321.488 73.5301C321.488 73.5925 321.364 73.7173 321.116 73.9045C320.929 73.9045 320.681 74.0293 320.247 74.2165C319.812 74.4036 319.44 74.5908 319.005 74.778C318.509 75.0276 317.888 75.2771 317.081 75.5891C316.275 75.9011 315.53 76.0882 314.785 76.2754C313.792 76.5874 313.047 76.7746 312.426 76.8369C311.806 76.8993 310.999 76.8993 309.944 76.8993L307.523 76.7746L307.027 78.7087C306.965 79.3327 306.84 79.8942 306.654 80.2685C306.592 80.4557 306.53 80.5805 306.53 80.7677V78.8335C306.53 77.5233 306.468 76.8993 306.406 76.8993C306.344 76.8993 306.158 77.8976 305.909 79.9566C305.289 85.0104 306.034 89.1907 308.206 92.4975C308.827 93.4958 309.323 94.1197 309.633 94.3693C309.944 94.6813 310.378 94.8684 310.937 95.0556C313.295 95.0556 315.592 94.5565 317.95 93.4958C319.192 92.8719 320.619 91.936 322.295 90.8129C323.971 89.6898 325.647 88.442 327.322 87.007C328.998 85.6343 330.488 84.1993 331.915 82.8266C333.343 81.3916 334.46 80.0814 335.267 78.8959C336.384 77.2737 337.687 75.5267 339.115 73.6549C340.542 71.7831 341.536 70.5977 342.094 70.0985C342.839 69.5994 343.211 69.4746 343.335 69.5994C343.646 69.849 342.901 71.284 341.163 73.8421C340.418 74.8404 340.17 75.2771 340.294 75.2771C340.48 75.09 340.605 74.9028 340.791 74.6532C340.977 74.466 341.287 74.0917 341.784 73.4053C342.901 71.8455 343.708 70.8472 344.142 70.4105C344.577 69.9738 344.887 69.849 345.073 69.9738C345.322 70.1609 345.26 70.5977 344.949 71.284L344.329 72.5319L345.197 71.4088C345.694 70.8472 346.066 70.5353 346.439 70.5353C346.997 70.5353 346.873 71.284 346.066 72.8438L345.446 74.0917L346.439 72.8438C346.997 72.2823 347.308 71.9703 347.432 71.9703V72.0951C347.432 72.1575 347.37 72.2823 347.308 72.3447C347.059 73.0934 346.563 74.0917 345.88 75.3395C345.135 76.5874 344.453 77.6481 343.832 78.4592C343.398 78.8959 342.963 79.4574 342.404 80.1438C341.846 80.8925 341.349 81.5164 340.977 82.0779C340.542 82.6395 340.046 83.3258 339.487 84.0121C338.929 84.6984 338.37 85.3224 337.998 85.6967C337.005 86.9446 336.57 87.6309 336.694 87.7557C336.943 88.0052 336.881 88.0676 336.57 87.8805C336.384 87.6933 336.26 87.8181 336.074 88.13C335.577 88.3796 335.391 88.5044 335.453 88.5044C335.391 88.5044 335.081 88.6916 334.646 89.0659C334.212 89.4403 333.653 89.877 333.032 90.4386C331.729 91.5616 330.798 92.3727 330.239 92.7471C329.743 92.9343 329.557 93.059 329.619 93.1214C329.805 93.3086 329.433 93.6206 328.502 94.1197C327.757 94.6813 327.384 95.0556 327.384 95.2428C327.384 95.43 327.074 95.6795 326.391 95.9915C326.081 96.1787 325.895 96.3035 325.771 96.3659C325.709 96.4283 325.585 96.553 325.522 96.6154C325.522 96.6778 325.274 96.865 324.84 97.1146C324.405 97.3641 323.847 97.6761 323.226 98.1128C322.109 98.6744 320.93 99.1735 319.688 99.4855C318.447 99.7975 317.516 100.047 316.895 100.047C316.709 100.047 316.275 100.047 315.592 99.9846C314.599 100.109 313.792 100.047 312.923 99.9846ZM300.323 68.6635C300.572 68.2268 300.758 67.8524 301.006 67.4156C301.192 66.9789 301.379 66.7293 301.565 66.5422C302.061 65.6687 302.992 64.3584 304.482 62.6114C305.971 60.8644 307.647 59.1174 309.571 57.2457C310.006 56.8089 310.316 56.4969 310.626 56.1226C310.937 55.8106 310.999 55.6234 310.937 55.6234C310.875 55.4363 310.44 55.5611 309.758 55.9978C309.075 56.4345 308.33 56.9337 307.461 57.5576C306.592 58.1815 305.785 58.9302 304.916 59.679C304.047 60.4277 303.427 61.1764 303.054 61.8003C302.434 62.6738 301.813 63.7345 301.254 64.8576C300.696 65.9806 300.261 67.0413 299.951 67.9148C299.455 69.3498 299.268 70.0985 299.33 70.0985C299.33 70.2233 299.641 69.7242 300.323 68.6635ZM304.916 67.79C306.22 65.4191 308.02 62.861 310.378 59.9909C310.875 59.4918 310.999 59.1798 310.875 58.9926C310.813 58.8055 310.44 59.055 309.758 59.7414C309.137 60.3653 308.454 61.114 307.709 61.9875C306.965 62.861 306.344 63.6721 305.785 64.5456C305.227 65.4191 304.916 65.9182 304.916 66.1678C304.916 66.355 304.792 66.6045 304.606 66.9789C304.42 67.3533 304.234 67.79 304.047 68.2891C303.054 69.9114 302.806 70.7225 303.179 70.7225C303.241 70.7225 303.489 70.4105 303.799 69.849C304.172 69.2874 304.544 68.6011 304.916 67.79ZM305.413 65.4815C305.599 65.2319 305.785 64.9823 306.034 64.608C306.282 64.296 306.468 63.9841 306.654 63.7345C306.84 63.4849 306.965 63.3601 307.027 63.3601C307.027 63.4225 306.965 63.5473 306.903 63.6097L306.406 64.3584C305.599 65.6063 305.165 66.1678 305.103 66.1678L305.413 65.4815ZM307.709 69.4746C308.578 67.79 309.509 66.355 310.378 65.1695C311.247 63.9841 312.302 62.7986 313.419 61.5507C314.785 60.1781 315.344 59.4918 315.095 59.4918C315.033 59.4918 314.909 59.5542 314.847 59.6166C314.04 60.1157 313.233 60.802 312.426 61.6755C311.62 62.549 310.813 63.5473 310.068 64.5456C309.323 65.5439 308.64 66.6045 308.02 67.6652C307.399 68.7259 306.965 69.7242 306.654 70.5977C306.468 71.0344 306.468 71.2216 306.654 71.2216C306.716 71.2216 307.089 70.6601 307.709 69.4746ZM309.385 69.849C310.689 67.3533 312.426 64.9823 314.723 62.7986C315.964 61.5507 316.399 60.9892 316.15 60.9892C315.964 60.9892 315.219 61.5507 313.854 62.6738C312.054 64.296 310.44 66.4174 309.013 69.0379C308.392 70.3481 308.144 70.972 308.392 70.972C308.764 70.972 309.075 70.5977 309.385 69.849ZM312.551 69.3498C314.164 68.4763 315.654 67.3533 316.957 65.9806C318.261 64.6704 319.13 63.3601 319.564 62.1123C319.812 61.4883 319.936 60.8644 319.999 60.3029C320.061 59.7414 319.999 59.4294 319.812 59.4294C319.75 59.4294 319.44 59.6166 318.943 59.9285C318.447 60.2405 317.888 60.6772 317.33 61.1764C316.771 61.6755 316.088 62.1747 315.53 62.6114C314.909 63.1106 314.475 63.4849 314.164 63.8593C313.295 64.7328 312.364 65.9806 311.371 67.478C310.378 68.9755 309.944 69.9114 309.944 70.3481C309.882 70.6601 310.813 70.3481 312.551 69.3498ZM317.143 69.1627C317.64 68.8507 318.137 68.4763 318.571 67.9772C319.068 67.5404 319.44 67.1661 319.688 66.7917C320.123 66.1678 320.495 65.3567 320.93 64.4832C321.364 63.6097 321.426 63.0482 321.302 62.9234L319.999 64.608C319.688 65.1071 319.254 65.6687 318.695 66.355C318.137 67.0413 317.578 67.6652 317.019 68.2268C316.523 68.7259 316.15 69.1626 315.778 69.537C315.468 69.9738 315.344 70.1609 315.406 70.1609C315.468 70.1609 315.716 70.0361 316.088 69.7866C316.399 69.5994 316.771 69.3498 317.143 69.1627ZM321.426 68.2891C321.612 68.3515 321.985 67.9772 322.729 67.1037C323.412 66.2302 323.909 65.6063 324.095 65.1071L324.591 63.5473C324.405 63.5473 324.157 63.8593 323.847 64.4208C323.536 64.8576 323.164 65.2943 322.792 65.7934C322.419 66.2926 322.047 66.7917 321.612 67.1661C320.867 68.0396 320.495 68.6011 320.495 68.7259C320.495 68.7883 320.619 68.7259 320.867 68.4763C321.116 68.2268 321.302 68.2268 321.426 68.2891ZM321.923 73.1558C322.667 72.5942 323.598 71.7207 324.778 70.4729C325.957 69.225 326.826 68.2268 327.384 67.2909C327.571 66.9789 327.695 66.7293 327.881 66.5422C328.067 66.355 328.191 66.2302 328.253 66.043C328.44 65.8558 328.564 65.731 328.626 65.5439C328.812 65.5439 328.564 66.043 327.881 67.1037C327.571 67.6652 327.074 68.3515 326.516 69.0379C325.957 69.7242 325.274 70.4729 324.591 71.1592C323.909 71.8455 323.288 72.4071 322.729 72.7814C322.171 73.2182 321.736 73.4053 321.488 73.4053L321.923 73.1558ZM321.426 68.0396C321.426 67.79 321.55 67.6028 321.798 67.5404C322.109 67.2909 322.171 67.3533 321.923 67.6652C321.55 67.9772 321.426 68.102 321.426 68.0396ZM324.654 68.9131C324.964 68.4763 325.336 67.9772 325.709 67.3533C326.081 66.7293 326.267 66.2926 326.267 66.1054L325.026 67.5404C324.591 68.0396 324.219 68.5387 323.723 69.0379C323.288 69.537 322.916 69.9737 322.543 70.2233C321.923 70.8472 321.55 71.2216 321.55 71.3464C321.55 71.5336 321.985 71.2216 322.792 70.5353C323.66 69.849 324.281 69.2874 324.654 68.9131ZM322.109 66.9165L322.605 66.4174C323.04 65.9806 323.04 66.043 322.729 66.5422C322.357 67.1661 322.109 67.2909 322.109 66.9165ZM330.364 86.8198C331.233 86.0087 332.164 85.0728 333.095 84.0745C334.026 83.0762 334.398 82.5771 334.274 82.5771C334.212 82.5771 334.088 82.6395 334.026 82.7019C333.839 82.7642 333.032 83.513 331.543 84.948C330.053 86.383 328.564 87.8181 327.136 89.2531C326.329 90.0018 325.957 90.3762 326.019 90.3762L326.267 90.2514C326.516 90.0018 326.702 89.877 326.888 89.7522C327.198 89.5027 327.695 89.1283 328.377 88.5668C329.06 88.0676 329.743 87.4437 330.364 86.8198ZM328.812 93.1214C328.75 93.059 328.874 92.9343 329.184 92.7471C329.557 92.5599 330.177 92.1231 330.984 91.4368C331.729 90.6881 332.412 90.1266 333.032 89.6274C333.653 89.0035 333.901 88.6292 333.777 88.6292C333.591 88.442 333.094 88.754 332.288 89.5027C331.481 90.2514 330.488 91.0625 329.433 91.936C328.129 93.059 327.757 93.6206 328.191 93.6206C328.253 93.6206 328.377 93.5582 328.44 93.4958C328.688 93.371 328.812 93.2462 328.812 93.1214ZM340.418 81.8284C340.605 81.5164 340.294 81.7036 339.549 82.4523C339.239 82.889 338.929 83.201 338.618 83.5754C338.308 83.8873 338.122 84.1369 338.06 84.3241C337.998 84.636 338.246 84.4488 338.929 83.7001C339.611 82.889 340.108 82.2651 340.418 81.8284ZM342.404 79.6446C342.591 79.395 342.777 79.0831 343.025 78.7087C343.273 78.3344 343.46 78.0848 343.646 77.8976L343.77 77.6481V77.5233L343.894 77.3985C343.832 77.3985 343.77 77.4609 343.77 77.5233L343.273 78.0224C341.473 79.9566 340.853 80.8925 341.349 80.7053C341.722 80.4557 342.032 80.0814 342.404 79.6446Z" fill="#F9EFDE"/>
</svg>
