<svg width="41" height="41" viewBox="0 0 41 41" fill="none" xmlns="http://www.w3.org/2000/svg">
<path d="M18.2368 10.7259L13.9808 16.1979C13.8387 16.3807 13.6377 16.5085 13.4119 16.5595C13.1862 16.6106 12.9497 16.5817 12.7428 16.4779L8.49281 14.3519C8.75108 13.7864 8.82727 13.1546 8.71084 12.5439C8.59442 11.9331 8.29112 11.3737 7.84289 10.9428C7.39466 10.512 6.82365 10.231 6.2088 10.1388C5.59395 10.0466 4.96565 10.1477 4.41076 10.4282C3.85588 10.7086 3.40182 11.1545 3.11139 11.7042C2.82095 12.2539 2.70847 12.8803 2.78951 13.4967C2.87056 14.1131 3.14111 14.6891 3.56376 15.1451C3.98642 15.6011 4.54029 15.9145 5.14881 16.0419L8.53281 32.1219C8.6513 32.6837 8.95951 33.1875 9.40566 33.5488C9.85181 33.9101 10.4087 34.1068 10.9828 34.1059H30.5468C31.1206 34.1064 31.677 33.9094 32.1227 33.5482C32.5685 33.1869 32.8764 32.6833 32.9948 32.1219L36.3788 16.0419C36.9873 15.9145 37.5412 15.6011 37.9638 15.1451C38.3865 14.6891 38.6571 14.1131 38.7381 13.4967C38.8191 12.8803 38.7067 12.2539 38.4162 11.7042C38.1258 11.1545 37.6717 10.7086 37.1169 10.4282C36.562 10.1477 35.9337 10.0466 35.3188 10.1388C34.704 10.231 34.133 10.512 33.6847 10.9428C33.2365 11.3737 32.9332 11.9331 32.8168 12.5439C32.7003 13.1546 32.7765 13.7864 33.0348 14.3519L28.7828 16.4779C28.5759 16.5817 28.3395 16.6106 28.1137 16.5595C27.8879 16.5085 27.6869 16.3807 27.5448 16.1979L23.2888 10.7239C23.5792 10.2706 23.7423 9.74751 23.761 9.20947C23.7797 8.67142 23.6532 8.13827 23.3948 7.66593C23.1365 7.1936 22.7558 6.79948 22.2927 6.52493C21.8296 6.25037 21.3012 6.1055 20.7628 6.1055C20.2244 6.1055 19.696 6.25037 19.2329 6.52493C18.7698 6.79948 18.3891 7.1936 18.1308 7.66593C17.8724 8.13827 17.746 8.67142 17.7646 9.20947C17.7833 9.74751 17.9464 10.2726 18.2368 10.7259ZM20.7628 28.1059C20.3688 28.1059 19.9787 28.0283 19.6148 27.8776C19.2508 27.7268 18.9201 27.5058 18.6415 27.2273C18.3629 26.9487 18.1419 26.618 17.9912 26.254C17.8404 25.89 17.7628 25.4999 17.7628 25.1059C17.7628 24.712 17.8404 24.3219 17.9912 23.9579C18.1419 23.5939 18.3629 23.2632 18.6415 22.9846C18.9201 22.706 19.2508 22.4851 19.6148 22.3343C19.9787 22.1835 20.3688 22.1059 20.7628 22.1059C21.5585 22.1059 22.3215 22.422 22.8841 22.9846C23.4467 23.5472 23.7628 24.3103 23.7628 25.1059C23.7628 25.9016 23.4467 26.6646 22.8841 27.2273C22.3215 27.7899 21.5585 28.1059 20.7628 28.1059Z" fill="#614D3B"/>
</svg>
