<svg width="41" height="40" viewBox="0 0 41 40" fill="none" xmlns="http://www.w3.org/2000/svg">
<g clip-path="url(#clip0_481_2959)">
<path d="M40.5 20C40.5 8.95438 31.5456 0 20.5 0C9.45437 0 0.5 8.95438 0.5 20C0.5 29.9825 7.81375 38.2567 17.375 39.757V25.7813H12.2969V20H17.375V15.5938C17.375 10.5813 20.3609 7.8125 24.9294 7.8125C27.1175 7.8125 29.4062 8.20313 29.4062 8.20313V13.125H26.8844C24.3998 13.125 23.625 14.6667 23.625 16.2484V20H29.1719L28.2852 25.7813H23.625V39.757C33.1863 38.2567 40.5 29.9827 40.5 20Z" fill="#4267B2"/>
<path d="M28.2852 25.7812L29.1719 20H23.625V16.2484C23.625 14.6666 24.3998 13.125 26.8844 13.125H29.4062V8.20312C29.4062 8.20312 27.1175 7.8125 24.9292 7.8125C20.3609 7.8125 17.375 10.5813 17.375 15.5938V20H12.2969V25.7812H17.375V39.757C18.4088 39.919 19.4536 40.0002 20.5 40C21.5464 40.0002 22.5912 39.919 23.625 39.757V25.7812H28.2852Z" fill="white"/>
</g>
<defs>
<clipPath id="clip0_481_2959">
<rect width="40" height="40" fill="white" transform="translate(0.5)"/>
</clipPath>
</defs>
</svg>
