<svg width="41" height="41" viewBox="0 0 41 41" fill="none" xmlns="http://www.w3.org/2000/svg">
<path d="M18.5495 20.4676L18.4912 20.6609L18.7045 20.9709C19.2495 21.7593 20.0578 22.9243 20.7278 24.4543C21.0834 23.9765 21.4967 23.4854 21.9678 22.9809L21.9645 22.9276C21.9122 22.2117 21.9177 21.4926 21.9812 20.7776C22.1262 19.1143 22.6628 16.8276 24.4162 15.1176C26.0961 13.4809 28.3428 12.7443 30.0912 12.4526C30.8779 12.3162 31.6765 12.2609 32.4745 12.2876C32.7995 12.3043 33.1295 12.3376 33.4245 12.4043C33.5695 12.4376 33.7545 12.4909 33.9428 12.5759C34.0878 12.6426 34.4595 12.8226 34.7378 13.2293C34.9811 13.5826 35.0712 13.9959 35.1045 14.1559C35.1578 14.4059 35.1978 14.6909 35.2245 14.9959C35.2745 15.6076 35.2745 16.3759 35.1745 17.2109C34.9778 18.8493 34.3628 20.9643 32.7245 22.5609C30.9995 24.2443 28.6028 24.8609 26.8578 25.1026C26.0421 25.2143 25.2195 25.2684 24.3962 25.2643C22.8461 26.9293 22.2828 28.1509 22.0512 29.1826C21.9957 29.4306 21.9546 29.6816 21.9278 29.9343L21.9295 30.1059V33.4393C21.9295 33.8813 21.7539 34.3052 21.4413 34.6178C21.1288 34.9303 20.7048 35.1059 20.2628 35.1059C19.8208 35.1059 19.3969 34.9303 19.0843 34.6178C18.7717 34.3052 18.5962 33.8813 18.5962 33.4393C18.595 33.1059 18.5878 32.7543 18.5745 32.3843C18.5512 31.5976 18.5245 30.7393 18.5945 29.8609C18.5345 26.7293 17.3345 24.9609 16.2578 23.3726C16.0307 23.0418 15.8107 22.7061 15.5978 22.3659L15.3211 22.3076C14.4535 22.1185 13.5994 21.8719 12.7645 21.5693C10.8378 20.8693 8.30448 19.5959 6.78615 17.3143C5.27615 15.0476 5.05282 12.3759 5.18615 10.3809C5.25282 9.36427 5.41782 8.46427 5.59282 7.78093C5.68115 7.4426 5.77615 7.13593 5.87448 6.88427C5.92115 6.76093 5.98115 6.6226 6.05282 6.48927C6.08782 6.4226 6.13948 6.33427 6.20782 6.23927C6.47679 5.86312 6.88135 5.60617 7.33615 5.5226C7.47948 5.4976 7.60282 5.49093 7.68782 5.48927C7.85782 5.48593 8.02448 5.50093 8.16282 5.51927C8.44615 5.55427 8.78448 5.62093 9.14615 5.71093C9.87282 5.89093 10.8078 6.1926 11.8062 6.62093C13.7562 7.4576 16.2028 8.8926 17.6895 11.1226C19.2295 13.4376 19.2895 16.1159 19.0512 18.0343C18.9481 18.8574 18.7798 19.6711 18.5478 20.4676" fill="#614D3B"/>
</svg>
