<svg width="41" height="40" viewBox="0 0 41 40" fill="none" xmlns="http://www.w3.org/2000/svg">
<path d="M13.5 3.33333H27.5C32.8333 3.33333 37.1666 7.66667 37.1666 13V27C37.1666 29.5638 36.1482 32.0225 34.3353 33.8354C32.5225 35.6482 30.0637 36.6667 27.5 36.6667H13.5C8.16665 36.6667 3.83331 32.3333 3.83331 27V13C3.83331 10.4362 4.85176 7.97748 6.66461 6.16463C8.47747 4.35178 10.9362 3.33333 13.5 3.33333ZM13.1666 6.66667C11.5753 6.66667 10.0492 7.29881 8.92401 8.42402C7.79879 9.54924 7.16665 11.0754 7.16665 12.6667V27.3333C7.16665 30.65 9.84998 33.3333 13.1666 33.3333H27.8333C29.4246 33.3333 30.9507 32.7012 32.076 31.576C33.2012 30.4508 33.8333 28.9246 33.8333 27.3333V12.6667C33.8333 9.35 31.15 6.66667 27.8333 6.66667H13.1666ZM29.25 9.16667C29.8025 9.16667 30.3324 9.38616 30.7231 9.77686C31.1138 10.1676 31.3333 10.6975 31.3333 11.25C31.3333 11.8025 31.1138 12.3324 30.7231 12.7231C30.3324 13.1138 29.8025 13.3333 29.25 13.3333C28.6974 13.3333 28.1675 13.1138 27.7768 12.7231C27.3861 12.3324 27.1666 11.8025 27.1666 11.25C27.1666 10.6975 27.3861 10.1676 27.7768 9.77686C28.1675 9.38616 28.6974 9.16667 29.25 9.16667ZM20.5 11.6667C22.7101 11.6667 24.8297 12.5446 26.3925 14.1074C27.9553 15.6702 28.8333 17.7899 28.8333 20C28.8333 22.2101 27.9553 24.3298 26.3925 25.8926C24.8297 27.4554 22.7101 28.3333 20.5 28.3333C18.2898 28.3333 16.1702 27.4554 14.6074 25.8926C13.0446 24.3298 12.1666 22.2101 12.1666 20C12.1666 17.7899 13.0446 15.6702 14.6074 14.1074C16.1702 12.5446 18.2898 11.6667 20.5 11.6667ZM20.5 15C19.1739 15 17.9021 15.5268 16.9644 16.4645C16.0268 17.4021 15.5 18.6739 15.5 20C15.5 21.3261 16.0268 22.5979 16.9644 23.5355C17.9021 24.4732 19.1739 25 20.5 25C21.8261 25 23.0978 24.4732 24.0355 23.5355C24.9732 22.5979 25.5 21.3261 25.5 20C25.5 18.6739 24.9732 17.4021 24.0355 16.4645C23.0978 15.5268 21.8261 15 20.5 15Z" fill="#F9EFDE"/>
</svg>
