<svg width="41" height="41" viewBox="0 0 41 41" fill="none" xmlns="http://www.w3.org/2000/svg">
<g clip-path="url(#clip0_481_2965)">
<path d="M31.4583 0.757034H10.2083C5.03064 0.757034 0.833313 4.95436 0.833313 10.132V31.382C0.833313 36.5597 5.03064 40.757 10.2083 40.757H31.4583C36.636 40.757 40.8333 36.5597 40.8333 31.382V10.132C40.8333 4.95436 36.636 0.757034 31.4583 0.757034Z" fill="url(#paint0_radial_481_2965)"/>
<path d="M31.4583 0.757034H10.2083C5.03064 0.757034 0.833313 4.95436 0.833313 10.132V31.382C0.833313 36.5597 5.03064 40.757 10.2083 40.757H31.4583C36.636 40.757 40.8333 36.5597 40.8333 31.382V10.132C40.8333 4.95436 36.636 0.757034 31.4583 0.757034Z" fill="url(#paint1_radial_481_2965)"/>
<path d="M20.8347 5.13203C16.5913 5.13203 16.0586 5.15063 14.3921 5.22641C12.7286 5.30266 11.5932 5.56594 10.5997 5.95235C9.57191 6.35141 8.70019 6.88532 7.83175 7.75407C6.96253 8.62266 6.42863 9.49438 6.02831 10.5217C5.64081 11.5155 5.37722 12.6514 5.30238 14.3141C5.22784 15.9808 5.20831 16.5136 5.20831 20.7572C5.20831 25.0008 5.22706 25.5317 5.30269 27.1983C5.37925 28.8617 5.64253 29.9972 6.02863 30.9906C6.428 32.0184 6.96191 32.8902 7.83066 33.7586C8.69894 34.6278 9.57066 35.163 10.5977 35.562C11.5919 35.9484 12.7275 36.2117 14.3907 36.288C16.0574 36.3638 16.5896 36.3823 20.8328 36.3823C25.0768 36.3823 25.6077 36.3638 27.2743 36.288C28.9377 36.2117 30.0744 35.9484 31.0686 35.562C32.096 35.163 32.9664 34.6278 33.8346 33.7586C34.7038 32.8902 35.2375 32.0184 35.638 30.9911C36.0221 29.9972 36.2858 28.8614 36.3639 27.1986C36.4388 25.532 36.4583 25.0008 36.4583 20.7572C36.4583 16.5136 36.4388 15.9811 36.3639 14.3144C36.2858 12.6509 36.0221 11.5156 35.638 10.5222C35.2375 9.49438 34.7038 8.62266 33.8346 7.75407C32.9655 6.885 32.0963 6.3511 31.0677 5.9525C30.0716 5.56594 28.9355 5.3025 27.2721 5.22641C25.6053 5.15063 25.0747 5.13203 20.8299 5.13203H20.8347ZM19.433 7.94782C19.8491 7.94719 20.3133 7.94782 20.8347 7.94782C25.0068 7.94782 25.5011 7.96282 27.1486 8.03766C28.6721 8.10735 29.4989 8.36188 30.0497 8.57578C30.7789 8.85891 31.2988 9.1975 31.8453 9.74453C32.3922 10.2914 32.7307 10.8122 33.0146 11.5414C33.2285 12.0914 33.4833 12.9183 33.5527 14.4417C33.6275 16.0889 33.6438 16.5836 33.6438 20.7536C33.6438 24.9236 33.6275 25.4184 33.5527 27.0655C33.483 28.5889 33.2285 29.4158 33.0146 29.9659C32.7314 30.6952 32.3922 31.2144 31.8453 31.7609C31.2985 32.3078 30.7793 32.6463 30.0497 32.9295C29.4996 33.1444 28.6721 33.3983 27.1486 33.468C25.5014 33.5428 25.0068 33.5591 20.8347 33.5591C16.6625 33.5591 16.168 33.5428 14.521 33.468C12.9975 33.3977 12.1707 33.1431 11.6194 32.9292C10.8903 32.6459 10.3694 32.3075 9.82253 31.7606C9.27566 31.2138 8.93722 30.6942 8.65331 29.9647C8.43941 29.4145 8.18456 28.5877 8.11519 27.0642C8.04034 25.417 8.02534 24.9223 8.02534 20.7497C8.02534 16.577 8.04034 16.085 8.11519 14.4378C8.18488 12.9144 8.43941 12.0875 8.65331 11.5367C8.93659 10.8075 9.27566 10.2867 9.82269 9.73985C10.3697 9.19297 10.8903 8.85438 11.6196 8.57063C12.1703 8.35578 12.9975 8.10188 14.521 8.03188C15.9624 7.96672 16.521 7.94719 19.433 7.94391V7.94782ZM29.1753 10.5422C28.1402 10.5422 27.3003 11.3813 27.3003 12.4166C27.3003 13.4517 28.1402 14.2916 29.1753 14.2916C30.2105 14.2916 31.0503 13.4517 31.0503 12.4166C31.0503 11.3814 30.2105 10.5416 29.1753 10.5416V10.5422ZM20.8347 12.733C16.4035 12.733 12.8107 16.3258 12.8107 20.7572C12.8107 25.1886 16.4035 28.7797 20.8347 28.7797C25.2661 28.7797 28.8577 25.1886 28.8577 20.7572C28.8577 16.3259 25.2658 12.733 20.8344 12.733H20.8347ZM20.8347 15.5488C23.7111 15.5488 26.0432 17.8805 26.0432 20.7572C26.0432 23.6336 23.7111 25.9656 20.8347 25.9656C17.9583 25.9656 15.6264 23.6336 15.6264 20.7572C15.6264 17.8805 17.9582 15.5488 20.8347 15.5488Z" fill="white"/>
</g>
<defs>
<radialGradient id="paint0_radial_481_2965" cx="0" cy="0" r="1" gradientUnits="userSpaceOnUse" gradientTransform="translate(11.4583 43.8378) rotate(-90) scale(39.643 36.8711)">
<stop stop-color="#FFDD55"/>
<stop offset="0.1" stop-color="#FFDD55"/>
<stop offset="0.5" stop-color="#FF543E"/>
<stop offset="1" stop-color="#C837AB"/>
</radialGradient>
<radialGradient id="paint1_radial_481_2965" cx="0" cy="0" r="1" gradientUnits="userSpaceOnUse" gradientTransform="translate(-5.86684 3.63844) rotate(78.681) scale(17.7206 73.045)">
<stop stop-color="#3771C8"/>
<stop offset="0.128" stop-color="#3771C8"/>
<stop offset="1" stop-color="#6600FF" stop-opacity="0"/>
</radialGradient>
<clipPath id="clip0_481_2965">
<rect width="40" height="40" fill="white" transform="translate(0.833313 0.757034)"/>
</clipPath>
</defs>
</svg>
