<svg width="36" height="40" viewBox="0 0 36 40" fill="none" xmlns="http://www.w3.org/2000/svg">
<g clip-path="url(#clip0_182_532)">
<path d="M21.7578 15.9531V21.5078C21.7578 21.6484 21.6485 21.7578 21.5078 21.7578H20.6172C20.5313 21.7578 20.4531 21.7109 20.4141 21.6563L17.8672 18.2188V21.5156C17.8672 21.6562 17.7578 21.7656 17.6172 21.7656H16.7266C16.586 21.7656 16.4766 21.6562 16.4766 21.5156V15.9609C16.4766 15.8203 16.586 15.7109 16.7266 15.7109H17.6094C17.6875 15.7109 17.7735 15.75 17.8125 15.8203L20.3594 19.2578V15.9609C20.3594 15.8203 20.4688 15.7109 20.6094 15.7109H21.5C21.6406 15.7031 21.7578 15.8203 21.7578 15.9531ZM15.3516 15.7031H14.461C14.3203 15.7031 14.211 15.8125 14.211 15.9531V21.5078C14.211 21.6484 14.3203 21.7578 14.461 21.7578H15.3516C15.4922 21.7578 15.6016 21.6484 15.6016 21.5078V15.9531C15.6016 15.8203 15.4922 15.7031 15.3516 15.7031ZM13.2031 20.3594H10.7735V15.9531C10.7735 15.8125 10.6641 15.7031 10.5235 15.7031H9.63283C9.4922 15.7031 9.38283 15.8125 9.38283 15.9531V21.5078C9.38283 21.5781 9.40627 21.6328 9.45314 21.6797C9.50002 21.7188 9.5547 21.75 9.62502 21.75H13.1953C13.336 21.75 13.4453 21.6406 13.4453 21.5V20.6094C13.4453 20.4766 13.336 20.3594 13.2031 20.3594ZM26.4453 15.7031H22.875C22.7422 15.7031 22.625 15.8125 22.625 15.9531V21.5078C22.625 21.6406 22.7344 21.7578 22.875 21.7578H26.4453C26.586 21.7578 26.6953 21.6484 26.6953 21.5078V20.6172C26.6953 20.4766 26.586 20.3672 26.4453 20.3672H24.0156V19.4297H26.4453C26.586 19.4297 26.6953 19.3203 26.6953 19.1797V18.2813C26.6953 18.1406 26.586 18.0313 26.4453 18.0313H24.0156V17.0938H26.4453C26.586 17.0938 26.6953 16.9844 26.6953 16.8438V15.9531C26.6875 15.8203 26.5781 15.7031 26.4453 15.7031ZM35.5 8.88281V31.1719C35.4922 34.6719 32.625 37.5078 29.1172 37.5H6.82814C3.32814 37.4922 0.492204 34.6172 0.500016 31.1172V8.82813C0.507829 5.32813 3.38283 2.49219 6.88283 2.5H29.1719C32.6719 2.50781 35.5078 5.375 35.5 8.88281ZM30.6875 18.4609C30.6875 12.7578 24.9688 8.11719 17.9453 8.11719C10.9219 8.11719 5.20314 12.7578 5.20314 18.4609C5.20314 23.5703 9.73439 27.8516 15.8594 28.6641C17.3516 28.9844 17.1797 29.5313 16.8438 31.5391C16.7891 31.8594 16.586 32.7969 17.9453 32.2266C19.3047 31.6563 25.2813 27.9062 27.961 24.8281C29.8047 22.7969 30.6875 20.7422 30.6875 18.4609Z" fill="#F9EFDE"/>
</g>
<defs>
<clipPath id="clip0_182_532">
<rect width="35" height="40" fill="white" transform="translate(0.5)"/>
</clipPath>
</defs>
</svg>
