<svg width="41" height="41" viewBox="0 0 41 41" fill="none" xmlns="http://www.w3.org/2000/svg">
<rect x="0.166321" y="4.20001" width="40" height="32.8124" rx="5" fill="white"/>
<path d="M24.461 15.9812V22.3294C24.461 22.4901 24.336 22.6151 24.1752 22.6151H23.1574C23.0592 22.6151 22.9699 22.5616 22.9252 22.4991L20.0145 18.5705V22.3383C20.0145 22.4991 19.8895 22.6241 19.7288 22.6241H18.711C18.5503 22.6241 18.4253 22.4991 18.4253 22.3383V15.9901C18.4253 15.8294 18.5503 15.7044 18.711 15.7044H19.7199C19.8092 15.7044 19.9074 15.7491 19.952 15.8294L22.8627 19.758V15.9901C22.8627 15.8294 22.9877 15.7044 23.1485 15.7044H24.1663C24.327 15.6955 24.461 15.8294 24.461 15.9812ZM17.1395 15.6955H16.1217C15.961 15.6955 15.836 15.8205 15.836 15.9812V22.3294C15.836 22.4901 15.961 22.6151 16.1217 22.6151H17.1395C17.3003 22.6151 17.4253 22.4901 17.4253 22.3294V15.9812C17.4253 15.8294 17.3003 15.6955 17.1395 15.6955ZM14.6842 21.0169H11.9074V15.9812C11.9074 15.8205 11.7824 15.6955 11.6217 15.6955H10.6038C10.4431 15.6955 10.3181 15.8205 10.3181 15.9812V22.3294C10.3181 22.4098 10.3449 22.4723 10.3985 22.5258C10.452 22.5705 10.5145 22.6062 10.5949 22.6062H14.6753C14.836 22.6062 14.961 22.4812 14.961 22.3205V21.3026C14.961 21.1508 14.836 21.0169 14.6842 21.0169ZM29.8181 15.6955H25.7377C25.586 15.6955 25.452 15.8205 25.452 15.9812V22.3294C25.452 22.4812 25.577 22.6151 25.7377 22.6151H29.8181C29.9788 22.6151 30.1038 22.4901 30.1038 22.3294V21.3116C30.1038 21.1508 29.9788 21.0258 29.8181 21.0258H27.0413V19.9544H29.8181C29.9788 19.9544 30.1038 19.8294 30.1038 19.6687V18.6419C30.1038 18.4812 29.9788 18.3562 29.8181 18.3562H27.0413V17.2848H29.8181C29.9788 17.2848 30.1038 17.1598 30.1038 16.9991V15.9812C30.0949 15.8294 29.9699 15.6955 29.8181 15.6955ZM40.1663 7.90086V33.374C40.1574 37.374 36.8806 40.6151 32.8717 40.6062H7.39848C3.39848 40.5973 0.157411 37.3115 0.166339 33.3115V7.83836C0.175268 3.83836 3.46098 0.597291 7.46097 0.60622H32.9342C36.9342 0.615148 40.1752 3.89193 40.1663 7.90086ZM34.6663 18.8473C34.6663 12.3294 28.1306 7.02586 20.1038 7.02586C12.077 7.02586 5.54133 12.3294 5.54133 18.8473C5.54133 24.6866 10.7199 29.5794 17.7199 30.508C19.4252 30.874 19.2288 31.499 18.8449 33.7937C18.7824 34.1598 18.5503 35.2312 20.1038 34.5794C21.6574 33.9276 28.4877 29.6419 31.5502 26.1241C33.6574 23.8026 34.6663 21.4544 34.6663 18.8473Z" fill="#319F43"/>
</svg>
