<svg width="58" height="91" viewBox="0 0 58 91" fill="none" xmlns="http://www.w3.org/2000/svg">
<path fill-rule="evenodd" clip-rule="evenodd" d="M0.647949 29.0162C0.647949 13.2468 14.1599 0.466797 29.0792 0.466797C44.002 0.466797 57.5104 13.2468 57.5104 29.0162C57.5104 43.2442 47.4696 59.9619 33.6752 82.929C32.1844 85.4111 30.6498 87.9663 29.0792 90.5992C27.5086 87.9663 25.974 85.4111 24.4831 82.929C10.6888 59.9619 0.647949 43.2442 0.647949 29.0162ZM18.4173 30.5103C18.4173 36.7332 23.1902 41.7768 29.079 41.7768C34.9678 41.7768 39.7407 36.7332 39.7407 30.5103C39.7407 24.2874 34.9678 19.2437 29.079 19.2437C23.1902 19.2437 18.4173 24.2874 18.4173 30.5103Z" fill="#ED977D"/>
</svg>
