<svg width="40" height="40" viewBox="0 0 40 40" fill="none" xmlns="http://www.w3.org/2000/svg">
<path d="M20 9.83334C20.4596 9.83334 20.9148 9.92387 21.3394 10.0998C21.7641 10.2757 22.1499 10.5335 22.4749 10.8585C22.7999 11.1835 23.0577 11.5693 23.2336 11.9939C23.4095 12.4186 23.5 12.8737 23.5 13.3333C23.5 13.793 23.4095 14.2481 23.2336 14.6727C23.0577 15.0974 22.7999 15.4832 22.4749 15.8082C22.1499 16.1332 21.7641 16.391 21.3394 16.5669C20.9148 16.7428 20.4596 16.8333 20 16.8333C19.0718 16.8333 18.1815 16.4646 17.5251 15.8082C16.8688 15.1518 16.5 14.2616 16.5 13.3333C16.5 12.4051 16.8688 11.5148 17.5251 10.8585C18.1815 10.2021 19.0718 9.83334 20 9.83334ZM20 24.8333C24.95 24.8333 30.1667 27.2667 30.1667 28.3333V30.1667H9.83335V28.3333C9.83335 27.2667 15.05 24.8333 20 24.8333ZM20 6.66667C16.3167 6.66667 13.3334 9.65 13.3334 13.3333C13.3334 17.0167 16.3167 20 20 20C23.6834 20 26.6667 17.0167 26.6667 13.3333C26.6667 9.65 23.6834 6.66667 20 6.66667ZM20 21.6667C15.55 21.6667 6.66669 23.9 6.66669 28.3333V33.3333H33.3334V28.3333C33.3334 23.9 24.45 21.6667 20 21.6667Z" fill="#614D3B"/>
</svg>
