<svg width="41" height="41" viewBox="0 0 41 41" fill="none" xmlns="http://www.w3.org/2000/svg">
<path d="M20.2627 2.60593C10.5986 2.60593 2.7627 10.4419 2.7627 20.1059C2.7627 29.77 10.5986 37.6059 20.2627 37.6059C29.9268 37.6059 37.7627 29.77 37.7627 20.1059C37.7627 10.4419 29.9268 2.60593 20.2627 2.60593ZM11.5127 16.5512C11.5227 16.0606 11.7247 15.5934 12.0752 15.2499C12.4257 14.9065 12.8969 14.7141 13.3877 14.7141C13.8785 14.7141 14.3497 14.9065 14.7002 15.2499C15.0507 15.5934 15.2527 16.0606 15.2627 16.5512C15.2527 17.0419 15.0507 17.5091 14.7002 17.8525C14.3497 18.196 13.8785 18.3884 13.3877 18.3884C12.8969 18.3884 12.4257 18.196 12.0752 17.8525C11.7247 17.5091 11.5227 17.0419 11.5127 16.5512ZM20.2627 27.1762C16.9229 27.1762 14.1846 24.5473 14.0127 21.2544C14.0106 21.212 14.0171 21.1697 14.0318 21.13C14.0466 21.0902 14.0693 21.0539 14.0985 21.0232C14.1277 20.9925 14.1629 20.9681 14.2019 20.9514C14.2409 20.9348 14.2828 20.9262 14.3252 20.9262H16.2041C16.3682 20.9262 16.5088 21.0512 16.5205 21.2153C16.6689 23.1489 18.29 24.6762 20.2627 24.6762C22.2354 24.6762 23.8604 23.1489 24.0049 21.2153C24.0166 21.0512 24.1572 20.9262 24.3213 20.9262H26.2002C26.2426 20.9262 26.2845 20.9348 26.3235 20.9514C26.3625 20.9681 26.3976 20.9925 26.4269 21.0232C26.4561 21.0539 26.4788 21.0902 26.4935 21.13C26.5083 21.1697 26.5148 21.212 26.5127 21.2544C26.3408 24.5473 23.6025 27.1762 20.2627 27.1762ZM27.1377 18.4262C26.647 18.4162 26.1799 18.2143 25.8364 17.8637C25.4929 17.5132 25.3006 17.042 25.3006 16.5512C25.3006 16.0605 25.4929 15.5893 25.8364 15.2387C26.1799 14.8882 26.647 14.6863 27.1377 14.6762C27.6283 14.6863 28.0955 14.8882 28.439 15.2387C28.7824 15.5893 28.9748 16.0605 28.9748 16.5512C28.9748 17.042 28.7824 17.5132 28.439 17.8637C28.0955 18.2143 27.6283 18.4162 27.1377 18.4262Z" fill="#614D3B"/>
</svg>
